<svg xmlns="http://www.w3.org/2000/svg" xmlns:xlink="http://www.w3.org/1999/xlink" width="500" zoomAndPan="magnify" viewBox="0 0 375 374.999991" height="500" preserveAspectRatio="xMidYMid meet" version="1.0"><defs><filter x="0%" y="0%" width="100%" height="100%" id="d57c10d089"><feColorMatrix values="0 0 0 0 1 0 0 0 0 1 0 0 0 0 1 0 0 0 1 0" color-interpolation-filters="sRGB"/></filter><g/><mask id="d0b6f5bb2f"><g filter="url(#d57c10d089)"><rect x="-37.5" width="450" fill="#000000" y="-37.499999" height="449.999989" fill-opacity="0.898"/></g></mask><clipPath id="1c5a0f5dea"><path d="M 0.046875 0.222656 L 75 0.222656 L 75 150.222656 L 0.046875 150.222656 Z M 0.046875 0.222656 " clip-rule="nonzero"/></clipPath><clipPath id="1f19c17836"><rect x="0" width="78" y="0" height="151"/></clipPath></defs><g mask="url(#d0b6f5bb2f)"><g transform="matrix(1, 0, 0, 1, 149, 78)"><g clip-path="url(#1f19c17836)"><path fill="#39b54a" d="M 40.371094 105.203125 C 43.203125 107.644531 44.304688 111.460938 44.585938 112.617188 C 44.910156 112.472656 45.25 112.386719 45.601562 112.359375 C 45.726562 112.351562 45.839844 112.386719 45.9375 112.464844 L 45.398438 103.996094 C 43.398438 103.835938 41.367188 104.699219 40.371094 105.203125 Z M 40.371094 105.203125 " fill-opacity="1" fill-rule="nonzero"/><path fill="#736357" d="M 5.855469 132.5 L 11.640625 132.5 L 11.640625 147.707031 L 5.855469 147.707031 Z M 5.855469 132.5 " fill-opacity="1" fill-rule="nonzero"/><path fill="#39b54a" d="M 43.425781 119.925781 C 43.15625 120.574219 42.296875 121.953125 39.636719 122.902344 L 43.921875 124.082031 L 44.914062 121.554688 C 44.277344 121.140625 43.78125 120.597656 43.425781 119.925781 Z M 43.425781 119.925781 " fill-opacity="1" fill-rule="nonzero"/><path fill="#ffc183" d="M 11.898438 129.265625 C 11.257812 129.320312 10.632812 129.351562 10.035156 129.371094 L 10.035156 131.503906 L 11.328125 131.503906 C 11.339844 131.402344 11.378906 131.3125 11.449219 131.238281 C 11.671875 130.992188 11.824219 130.710938 11.90625 130.386719 C 11.988281 130.066406 11.992188 129.746094 11.910156 129.425781 C 11.898438 129.375 11.894531 129.320312 11.898438 129.265625 Z M 11.898438 129.265625 " fill-opacity="1" fill-rule="nonzero"/><path fill="#736357" d="M 8.757812 129.53125 L 9.042969 129.53125 L 9.042969 131.34375 L 8.757812 131.34375 Z M 8.757812 129.53125 " fill-opacity="1" fill-rule="nonzero"/><path fill="#ffc183" d="M 7.765625 131.511719 L 7.765625 129.375 C 7.074219 129.375 6.4375 129.332031 5.855469 129.292969 C 5.773438 130.160156 6.046875 130.894531 6.675781 131.503906 Z M 7.765625 131.511719 " fill-opacity="1" fill-rule="nonzero"/><path fill="#ffc183" d="M 9.800781 64.445312 C 11.859375 61.5 13.695312 58.421875 15.316406 55.214844 C 17.214844 51.503906 21.1875 48.683594 27.125 46.828125 C 28.171875 46.503906 29.230469 46.21875 30.296875 46.003906 C 30.28125 45.96875 30.269531 45.933594 30.257812 45.894531 C 28.039062 34.023438 20.984375 2.976562 15.074219 2.019531 C 14.085938 1.855469 13.195312 3.402344 12.621094 4.730469 C 7.214844 17.152344 6.035156 61.566406 9.800781 64.445312 Z M 9.800781 64.445312 " fill-opacity="1" fill-rule="nonzero"/><path fill="#ffc183" d="M 59.339844 55.21875 C 60.925781 58.375 62.726562 61.402344 64.738281 64.304688 C 68.324219 60.382812 67.097656 16.996094 61.769531 4.730469 C 61.191406 3.402344 60.296875 1.855469 59.320312 2.019531 C 53.402344 2.976562 46.359375 34.011719 44.140625 45.894531 C 45.730469 46.207031 47.285156 46.632812 48.8125 47.175781 C 54.015625 49.035156 57.558594 51.742188 59.339844 55.21875 Z M 59.339844 55.21875 " fill-opacity="1" fill-rule="nonzero"/><path fill="#c7b299" d="M 53.445312 131.085938 L 52.648438 131.085938 L 52.488281 131.070312 L 52.457031 131.070312 C 51.910156 131.042969 51.433594 130.625 51.039062 129.820312 L 46.988281 129.820312 L 46.988281 131.917969 L 57.757812 131.917969 L 57.757812 130.640625 L 57.6875 130.65625 L 57.527344 130.691406 L 57.035156 130.792969 L 56.855469 130.824219 C 56.679688 130.855469 56.507812 130.886719 56.339844 130.910156 L 56.253906 130.910156 L 55.6875 130.984375 L 55.554688 131 L 55.144531 131.042969 L 55.003906 131.042969 C 54.847656 131.042969 54.695312 131.066406 54.5625 131.074219 L 54.523438 131.074219 L 54.082031 131.09375 L 53.445312 131.09375 Z M 53.445312 131.085938 " fill-opacity="1" fill-rule="nonzero"/><path fill="#c7b299" d="M 6.0625 96.765625 L 6.152344 96.765625 C 6.207031 96.769531 6.261719 96.78125 6.3125 96.804688 L 6.34375 96.804688 C 6.394531 96.828125 6.4375 96.859375 6.476562 96.898438 C 6.515625 96.941406 6.542969 96.988281 6.566406 97.042969 C 6.566406 97.042969 6.566406 97.042969 6.566406 97.058594 C 6.585938 97.113281 6.59375 97.164062 6.59375 97.222656 L 6.59375 97.253906 C 6.59375 97.253906 6.59375 97.277344 6.59375 97.292969 C 6.433594 98.4375 6.929688 99.710938 7.777344 100.308594 C 8.238281 100.628906 8.75 100.8125 9.3125 100.855469 C 9.871094 100.898438 10.40625 100.796875 10.914062 100.554688 C 11.054688 100.480469 11.199219 100.476562 11.34375 100.542969 C 11.488281 100.613281 11.582031 100.722656 11.617188 100.875 C 11.761719 101.414062 12.027344 101.886719 12.40625 102.292969 C 12.785156 102.703125 13.234375 103 13.761719 103.1875 C 14.292969 103.375 14.835938 103.429688 15.394531 103.355469 C 15.953125 103.28125 16.464844 103.082031 16.925781 102.765625 C 17.085938 102.648438 17.257812 102.632812 17.433594 102.71875 C 17.613281 102.804688 17.707031 102.949219 17.714844 103.144531 C 17.757812 104.238281 18.394531 105.542969 19.550781 105.910156 C 20.121094 106.082031 20.695312 106.078125 21.265625 105.902344 C 21.835938 105.730469 22.308594 105.410156 22.683594 104.949219 C 22.808594 104.792969 22.96875 104.730469 23.164062 104.765625 C 23.363281 104.800781 23.492188 104.914062 23.550781 105.105469 C 23.773438 105.816406 24.46875 106.601562 25.199219 106.683594 C 25.585938 106.722656 25.953125 106.652344 26.300781 106.476562 C 26.648438 106.304688 26.921875 106.050781 27.121094 105.722656 C 27.21875 105.558594 27.363281 105.476562 27.550781 105.476562 C 27.746094 105.480469 27.886719 105.566406 27.980469 105.738281 C 28.425781 106.574219 29.554688 107.460938 30.386719 107.640625 C 31.328125 107.832031 32.183594 107.636719 32.945312 107.058594 C 33.046875 106.980469 33.160156 106.945312 33.289062 106.957031 C 33.414062 106.964844 33.523438 107.015625 33.609375 107.105469 C 33.9375 107.378906 34.3125 107.5 34.738281 107.476562 C 35.179688 107.496094 35.570312 107.367188 35.914062 107.089844 C 36.027344 106.953125 36.113281 106.800781 36.171875 106.632812 C 36.226562 106.46875 36.253906 106.296875 36.246094 106.117188 C 36.234375 105.941406 36.195312 105.773438 36.121094 105.613281 C 36.050781 105.449219 35.949219 105.308594 35.820312 105.183594 C 35.761719 105.132812 35.71875 105.070312 35.6875 105 C 35.660156 104.925781 35.648438 104.851562 35.652344 104.773438 C 35.660156 104.695312 35.683594 104.625 35.722656 104.554688 C 35.761719 104.488281 35.816406 104.433594 35.882812 104.390625 C 36.34375 104.109375 36.289062 103.441406 36.167969 102.933594 C 36.140625 102.800781 36.164062 102.679688 36.238281 102.566406 C 36.308594 102.457031 36.410156 102.382812 36.539062 102.355469 C 36.667969 102.324219 36.792969 102.339844 36.90625 102.410156 C 37.023438 102.476562 37.097656 102.574219 37.132812 102.703125 C 37.351562 103.617188 37.246094 104.347656 36.828125 104.851562 C 37.070312 105.222656 37.203125 105.628906 37.222656 106.074219 C 37.261719 106.726562 37.058594 107.292969 36.609375 107.769531 C 36.074219 108.261719 35.441406 108.492188 34.714844 108.464844 C 34.417969 108.464844 34.125 108.421875 33.835938 108.339844 L 38.800781 112.0625 L 41.78125 109.105469 C 41.867188 109.023438 41.96875 108.980469 42.089844 108.972656 C 41.371094 107.597656 40.394531 106.441406 39.164062 105.496094 C 39.097656 105.449219 39.042969 105.386719 39.007812 105.3125 C 38.972656 105.242188 38.953125 105.164062 38.957031 105.082031 C 38.960938 105 38.980469 104.921875 39.023438 104.851562 C 39.066406 104.78125 39.121094 104.722656 39.191406 104.679688 C 39.210938 104.679688 39.285156 104.617188 39.410156 104.546875 C 39.117188 104.234375 38.925781 103.871094 38.828125 103.453125 C 38.734375 103.039062 38.75 102.625 38.875 102.21875 C 38.34375 102.238281 37.808594 102.246094 37.257812 102.246094 C 21.175781 102.246094 12.023438 94.414062 7.167969 87.828125 C 7.09375 87.863281 7.015625 87.882812 6.929688 87.878906 C 6.703125 87.863281 6.484375 87.890625 6.265625 87.957031 C 6.050781 88.027344 5.851562 88.132812 5.675781 88.273438 C 5.5 88.414062 5.355469 88.585938 5.242188 88.78125 C 5.128906 88.980469 5.058594 89.191406 5.023438 89.414062 C 4.992188 89.636719 5.003906 89.859375 5.054688 90.078125 C 5.109375 90.300781 5.199219 90.503906 5.328125 90.6875 C 5.457031 90.875 5.617188 91.03125 5.804688 91.15625 C 5.996094 91.28125 6.199219 91.371094 6.421875 91.417969 C 6.667969 91.460938 6.804688 91.605469 6.828125 91.855469 C 6.859375 92.078125 6.78125 92.246094 6.585938 92.359375 C 5.710938 92.863281 4.777344 93.988281 4.769531 95.078125 C 4.75 95.523438 4.867188 95.929688 5.117188 96.296875 C 5.347656 96.625 5.664062 96.78125 6.0625 96.765625 Z M 6.0625 96.765625 " fill-opacity="1" fill-rule="nonzero"/><path fill="#534741" d="M 54.132812 119.46875 C 54.050781 119.710938 53.941406 119.9375 53.800781 120.152344 C 53.230469 121.011719 52.246094 121.613281 50.804688 122 C 50.804688 124.960938 51.1875 127.609375 51.816406 129.097656 C 52.144531 129.878906 52.429688 130.050781 52.519531 130.050781 L 52.578125 130.050781 C 52.578125 130.050781 52.695312 130.050781 52.882812 130.074219 C 52.890625 130.039062 52.898438 130.007812 52.910156 129.972656 C 53.523438 128.484375 54.179688 124.835938 54.179688 121.546875 C 54.195312 120.820312 54.171875 120.113281 54.132812 119.46875 Z M 54.132812 119.46875 " fill-opacity="1" fill-rule="nonzero"/><path fill="#39b54a" d="M 47.164062 112.894531 C 47.472656 112.78125 47.761719 112.636719 48.039062 112.464844 C 48.195312 112.371094 48.34375 112.28125 48.523438 112.195312 C 48.503906 109.574219 50.382812 107.351562 51.5 106.269531 C 51.433594 106.257812 51.371094 106.234375 51.316406 106.199219 C 51.296875 106.1875 51.277344 106.175781 51.261719 106.160156 L 46.460938 105.070312 L 46.972656 112.929688 C 47.035156 112.921875 47.101562 112.910156 47.164062 112.894531 Z M 47.164062 112.894531 " fill-opacity="1" fill-rule="nonzero"/><path fill="#ffc183" d="M 43.695312 115.105469 C 43.359375 117.238281 43.859375 119.984375 45.75 120.898438 C 47.253906 121.625 49.058594 121.417969 50.3125 121.117188 C 51.644531 120.792969 52.515625 120.304688 52.976562 119.613281 C 53.628906 118.628906 53.316406 116.949219 53.070312 115.597656 C 53.019531 115.34375 52.976562 115.097656 52.9375 114.867188 C 52.867188 114.472656 52.714844 114.117188 52.476562 113.796875 C 52.242188 113.472656 51.945312 113.222656 51.589844 113.035156 C 50.816406 112.644531 50.027344 112.617188 49.222656 112.945312 C 48.988281 113.050781 48.757812 113.167969 48.539062 113.304688 C 48.203125 113.519531 47.847656 113.691406 47.46875 113.828125 C 46.757812 114.054688 45.867188 113.933594 45.398438 113.382812 C 44.96875 113.480469 44.597656 113.683594 44.292969 113.996094 C 43.984375 114.304688 43.785156 114.675781 43.695312 115.105469 Z M 43.695312 115.105469 " fill-opacity="1" fill-rule="nonzero"/><path fill="#39b54a" d="M 45.046875 123.929688 L 47.894531 124.058594 L 47.667969 122.351562 C 47.03125 122.320312 46.410156 122.195312 45.808594 121.984375 Z M 45.046875 123.929688 " fill-opacity="1" fill-rule="nonzero"/><path fill="#302621" d="M 34.414062 76.609375 C 34.414062 76.777344 34.414062 76.945312 34.386719 77.109375 L 40.84375 77.109375 C 40.828125 76.945312 40.820312 76.777344 40.820312 76.609375 C 40.820312 75.890625 40.976562 75.210938 41.289062 74.5625 L 33.9375 74.5625 C 34.25 75.210938 34.410156 75.890625 34.414062 76.609375 Z M 34.414062 76.609375 " fill-opacity="1" fill-rule="nonzero"/><path fill="#c7b299" d="M 67.621094 87.585938 C 67.5625 87.664062 67.507812 87.746094 67.449219 87.820312 C 62.855469 94.042969 54.4375 101.386719 39.984375 102.210938 C 39.976562 102.242188 39.960938 102.277344 39.945312 102.308594 C 39.78125 102.628906 39.742188 102.964844 39.832031 103.316406 C 39.917969 103.644531 40.097656 103.90625 40.375 104.105469 C 41.652344 103.496094 43.808594 102.746094 45.945312 103.070312 C 46.058594 103.085938 46.15625 103.140625 46.234375 103.226562 C 46.3125 103.308594 46.355469 103.410156 46.363281 103.527344 L 46.398438 104.039062 L 51.335938 105.160156 C 51.363281 105.09375 51.390625 105.027344 51.414062 104.960938 C 51.476562 104.773438 51.601562 104.660156 51.796875 104.625 C 51.992188 104.589844 52.152344 104.648438 52.277344 104.804688 C 52.652344 105.265625 53.125 105.585938 53.695312 105.757812 C 54.265625 105.933594 54.839844 105.9375 55.410156 105.765625 C 56.554688 105.394531 57.199219 104.097656 57.246094 103 C 57.257812 102.804688 57.347656 102.664062 57.527344 102.574219 C 57.703125 102.488281 57.871094 102.503906 58.03125 102.617188 C 58.496094 102.9375 59.003906 103.132812 59.5625 103.210938 C 60.121094 103.285156 60.664062 103.226562 61.195312 103.042969 C 61.722656 102.855469 62.175781 102.558594 62.554688 102.148438 C 62.933594 101.738281 63.195312 101.265625 63.339844 100.730469 C 63.378906 100.578125 63.46875 100.464844 63.613281 100.398438 C 63.757812 100.332031 63.902344 100.335938 64.042969 100.40625 C 64.550781 100.652344 65.085938 100.753906 65.644531 100.707031 C 66.207031 100.664062 66.71875 100.484375 67.179688 100.164062 C 68.023438 99.554688 68.519531 98.292969 68.359375 97.144531 C 68.351562 97.070312 68.355469 96.996094 68.382812 96.921875 C 68.40625 96.851562 68.445312 96.785156 68.496094 96.730469 C 68.550781 96.675781 68.613281 96.636719 68.6875 96.613281 C 68.757812 96.585938 68.832031 96.578125 68.910156 96.585938 C 69.308594 96.601562 69.625 96.449219 69.859375 96.125 C 70.109375 95.753906 70.222656 95.347656 70.203125 94.902344 C 70.203125 93.816406 69.265625 92.691406 68.386719 92.183594 C 68.1875 92.074219 68.105469 91.90625 68.140625 91.679688 C 68.171875 91.453125 68.300781 91.316406 68.527344 91.269531 C 68.746094 91.21875 68.953125 91.132812 69.140625 91.007812 C 69.332031 90.882812 69.488281 90.726562 69.617188 90.539062 C 69.75 90.355469 69.839844 90.152344 69.890625 89.929688 C 69.945312 89.710938 69.953125 89.488281 69.921875 89.265625 C 69.890625 89.042969 69.816406 88.832031 69.707031 88.636719 C 69.59375 88.4375 69.449219 88.269531 69.273438 88.125 C 69.097656 87.984375 68.902344 87.878906 68.683594 87.808594 C 68.46875 87.742188 68.246094 87.714844 68.019531 87.730469 C 67.863281 87.746094 67.730469 87.699219 67.621094 87.585938 Z M 67.621094 87.585938 " fill-opacity="1" fill-rule="nonzero"/><path fill="#302621" d="M 62.136719 75.113281 L 62.136719 81.585938 C 62.136719 81.890625 62.078125 82.183594 61.960938 82.464844 C 61.84375 82.742188 61.675781 82.992188 61.460938 83.207031 C 61.242188 83.421875 60.996094 83.585938 60.710938 83.703125 C 60.429688 83.820312 60.136719 83.878906 59.828125 83.878906 L 49.023438 83.878906 C 48.375 83.878906 47.746094 83.761719 47.140625 83.53125 C 46.410156 83.253906 45.773438 82.835938 45.230469 82.277344 L 43.296875 80.269531 C 42.816406 79.777344 42.453125 79.214844 42.195312 78.582031 C 41.941406 77.949219 41.816406 77.292969 41.820312 76.609375 C 41.820312 76.105469 41.917969 75.621094 42.109375 75.15625 C 42.304688 74.691406 42.582031 74.277344 42.9375 73.921875 C 43.296875 73.566406 43.707031 73.292969 44.175781 73.097656 C 44.644531 72.90625 45.128906 72.808594 45.636719 72.808594 L 59.835938 72.808594 C 60.140625 72.808594 60.4375 72.867188 60.71875 72.984375 C 61 73.101562 61.25 73.269531 61.464844 73.484375 C 61.679688 73.703125 61.847656 73.949219 61.964844 74.230469 C 62.078125 74.515625 62.136719 74.808594 62.136719 75.113281 Z M 62.136719 75.113281 " fill-opacity="1" fill-rule="nonzero"/><path fill="#302621" d="M 33.414062 76.609375 C 33.417969 77.292969 33.289062 77.949219 33.035156 78.582031 C 32.78125 79.214844 32.414062 79.777344 31.9375 80.269531 L 29.984375 82.285156 C 29.484375 82.792969 28.910156 83.1875 28.25 83.464844 C 27.59375 83.742188 26.90625 83.882812 26.191406 83.882812 L 15.382812 83.882812 C 15.078125 83.882812 14.78125 83.824219 14.5 83.710938 C 14.21875 83.59375 13.96875 83.429688 13.753906 83.210938 C 13.535156 82.996094 13.371094 82.75 13.253906 82.46875 C 13.136719 82.1875 13.074219 81.894531 13.074219 81.589844 L 13.074219 75.113281 C 13.074219 74.808594 13.136719 74.515625 13.253906 74.234375 C 13.371094 73.953125 13.535156 73.703125 13.753906 73.488281 C 13.96875 73.273438 14.21875 73.109375 14.5 72.992188 C 14.78125 72.875 15.078125 72.816406 15.382812 72.816406 L 29.59375 72.816406 C 30.101562 72.816406 30.585938 72.914062 31.054688 73.105469 C 31.519531 73.296875 31.933594 73.574219 32.289062 73.929688 C 32.648438 74.285156 32.925781 74.695312 33.121094 75.15625 C 33.3125 75.621094 33.414062 76.105469 33.414062 76.609375 Z M 33.414062 76.609375 " fill-opacity="1" fill-rule="nonzero"/><path fill="#ffc183" d="M 58.453125 55.667969 C 56.792969 52.421875 53.4375 49.875 48.476562 48.105469 C 45.078125 46.917969 41.578125 46.292969 37.976562 46.238281 C 34.375 46.179688 30.855469 46.695312 27.417969 47.777344 C 21.742188 49.550781 17.96875 52.214844 16.195312 55.667969 C 11.273438 65.304688 5.824219 71.9375 1.515625 73.582031 C 2.796875 78.550781 4.949219 83.113281 7.980469 87.261719 C 12.691406 93.664062 21.601562 101.289062 37.28125 101.289062 C 52.964844 101.289062 61.898438 93.664062 66.625 87.261719 C 69.667969 83.113281 71.839844 78.554688 73.136719 73.582031 C 68.828125 71.933594 63.378906 65.304688 58.453125 55.667969 Z M 63.128906 81.585938 C 63.128906 82.019531 63.042969 82.4375 62.878906 82.839844 C 62.710938 83.242188 62.472656 83.597656 62.164062 83.902344 C 61.855469 84.210938 61.5 84.449219 61.097656 84.617188 C 60.691406 84.785156 60.273438 84.867188 59.835938 84.867188 L 49.023438 84.867188 C 48.175781 84.867188 47.359375 84.699219 46.578125 84.371094 C 45.796875 84.039062 45.113281 83.570312 44.519531 82.964844 L 42.566406 80.949219 C 41.785156 80.140625 41.261719 79.195312 41 78.105469 L 34.21875 78.105469 C 33.953125 79.195312 33.433594 80.140625 32.652344 80.945312 L 30.699219 82.960938 C 30.105469 83.566406 29.421875 84.035156 28.636719 84.367188 C 27.855469 84.699219 27.039062 84.863281 26.191406 84.867188 L 15.382812 84.867188 C 14.945312 84.867188 14.523438 84.78125 14.121094 84.613281 C 13.71875 84.449219 13.363281 84.210938 13.050781 83.902344 C 12.742188 83.597656 12.503906 83.242188 12.335938 82.839844 C 12.167969 82.4375 12.085938 82.019531 12.082031 81.585938 L 12.082031 75.113281 C 12.085938 74.675781 12.167969 74.257812 12.335938 73.855469 C 12.503906 73.453125 12.742188 73.097656 13.050781 72.792969 C 13.359375 72.484375 13.71875 72.246094 14.121094 72.078125 C 14.523438 71.914062 14.945312 71.828125 15.382812 71.828125 L 29.59375 71.828125 C 30.316406 71.828125 31 71.980469 31.652344 72.289062 C 32.304688 72.59375 32.855469 73.027344 33.3125 73.582031 L 41.894531 73.582031 C 42.351562 73.023438 42.90625 72.589844 43.558594 72.28125 C 44.210938 71.972656 44.898438 71.820312 45.621094 71.820312 L 59.835938 71.820312 C 60.273438 71.820312 60.695312 71.902344 61.097656 72.070312 C 61.503906 72.238281 61.859375 72.472656 62.167969 72.78125 C 62.476562 73.089844 62.714844 73.445312 62.882812 73.847656 C 63.050781 74.25 63.132812 74.667969 63.136719 75.101562 Z M 63.128906 81.585938 " fill-opacity="1" fill-rule="nonzero"/><path fill="#736357" d="M 58.75 130.347656 L 58.75 132.375 C 58.75 132.511719 58.699219 132.628906 58.601562 132.722656 C 58.507812 132.820312 58.390625 132.867188 58.253906 132.867188 L 46.492188 132.867188 C 46.355469 132.867188 46.238281 132.820312 46.140625 132.722656 C 46.042969 132.628906 45.996094 132.511719 45.996094 132.375 L 45.996094 129.289062 C 45.996094 129.152344 46.046875 129.035156 46.144531 128.9375 C 46.238281 128.84375 46.355469 128.792969 46.492188 128.792969 L 50.648438 128.792969 C 50.136719 127.191406 49.828125 124.832031 49.808594 122.21875 C 49.429688 122.289062 49.046875 122.332031 48.664062 122.359375 L 48.953125 124.515625 C 48.972656 124.667969 48.929688 124.800781 48.828125 124.917969 C 48.726562 125.023438 48.605469 125.074219 48.460938 125.074219 L 48.4375 125.074219 L 44.898438 124.917969 C 44.820312 124.910156 44.746094 124.890625 44.679688 124.851562 C 44.59375 125.054688 44.441406 125.15625 44.21875 125.15625 C 44.171875 125.15625 44.128906 125.152344 44.085938 125.136719 L 37.652344 123.367188 C 37.402344 123.300781 37.28125 123.136719 37.292969 122.875 C 37.296875 122.617188 37.429688 122.460938 37.679688 122.40625 C 42.070312 121.449219 42.546875 119.398438 42.550781 119.375 C 42.601562 119.128906 42.753906 119 43.003906 118.980469 C 42.578125 117.65625 42.476562 116.308594 42.699219 114.9375 C 42.820312 114.234375 43.148438 113.648438 43.6875 113.175781 C 43.679688 113.160156 43.675781 113.144531 43.671875 113.128906 C 43.40625 111.976562 43.019531 110.867188 42.511719 109.796875 C 42.503906 109.808594 42.5 109.816406 42.492188 109.824219 L 39.351562 112.9375 L 39.351562 117.980469 C 39.339844 118.109375 39.289062 118.21875 39.191406 118.304688 C 39.097656 118.394531 38.984375 118.4375 38.851562 118.4375 C 38.722656 118.4375 38.609375 118.394531 38.515625 118.304688 C 38.417969 118.21875 38.363281 118.109375 38.355469 117.980469 L 38.355469 112.980469 L 32.460938 108.558594 C 32.429688 108.535156 32.402344 108.507812 32.378906 108.476562 C 31.9375 108.632812 31.480469 108.710938 31.011719 108.710938 C 30.726562 108.710938 30.449219 108.683594 30.171875 108.625 C 29.25 108.433594 28.1875 107.6875 27.5 106.828125 C 27.175781 107.148438 26.800781 107.382812 26.371094 107.535156 C 25.941406 107.683594 25.5 107.734375 25.050781 107.6875 C 24.128906 107.582031 23.347656 106.90625 22.90625 106.132812 C 22.394531 106.558594 21.8125 106.835938 21.160156 106.964844 C 20.507812 107.097656 19.863281 107.0625 19.230469 106.867188 C 17.925781 106.449219 17.101562 105.210938 16.816406 103.980469 C 16.542969 104.109375 16.261719 104.207031 15.972656 104.277344 C 15.679688 104.347656 15.382812 104.386719 15.082031 104.398438 C 14.785156 104.410156 14.484375 104.390625 14.191406 104.339844 C 13.894531 104.289062 13.605469 104.210938 13.328125 104.101562 C 13.046875 103.992188 12.78125 103.859375 12.527344 103.695312 C 12.277344 103.535156 12.042969 103.351562 11.828125 103.140625 C 11.613281 102.933594 11.425781 102.703125 11.257812 102.457031 C 11.089844 102.207031 10.949219 101.945312 10.832031 101.667969 C 10.21875 101.867188 9.59375 101.917969 8.957031 101.824219 C 8.316406 101.726562 7.734375 101.5 7.203125 101.132812 C 6.410156 100.527344 5.910156 99.734375 5.699219 98.761719 C 4.363281 101.335938 1.792969 108.878906 2.703125 127.9375 C 6.511719 128.511719 10.324219 128.539062 14.136719 128.015625 C 14.371094 119.359375 13.300781 114.6875 13.285156 114.621094 C 13.253906 114.484375 13.273438 114.363281 13.34375 114.246094 C 13.417969 114.128906 13.519531 114.054688 13.652344 114.023438 C 13.785156 113.992188 13.910156 114.011719 14.027344 114.082031 C 14.144531 114.15625 14.21875 114.257812 14.25 114.390625 C 14.277344 114.5 16.789062 125.402344 13.371094 144.863281 C 15.785156 145.066406 25.898438 145.800781 34.160156 144.863281 L 37.699219 136.800781 L 37.699219 129.6875 C 37.699219 129.550781 37.746094 129.433594 37.84375 129.339844 C 37.941406 129.242188 38.058594 129.195312 38.195312 129.195312 C 38.332031 129.195312 38.449219 129.242188 38.546875 129.339844 C 38.644531 129.433594 38.691406 129.550781 38.691406 129.6875 L 38.691406 136.675781 C 38.714844 136.703125 38.734375 136.734375 38.75 136.765625 L 42.65625 144.386719 C 51.148438 145.285156 61.003906 144.972656 63.449219 144.875 C 62.496094 139.6875 61.949219 134.457031 61.808594 129.1875 C 60.824219 129.664062 59.804688 130.050781 58.75 130.347656 Z M 31.023438 132.375 C 31.023438 132.511719 30.972656 132.628906 30.875 132.722656 C 30.78125 132.820312 30.664062 132.867188 30.527344 132.867188 L 18.769531 132.867188 C 18.632812 132.867188 18.515625 132.820312 18.417969 132.722656 C 18.320312 132.628906 18.269531 132.511719 18.269531 132.375 L 18.269531 129.289062 C 18.269531 129.152344 18.320312 129.035156 18.417969 128.9375 C 18.515625 128.84375 18.632812 128.792969 18.769531 128.792969 L 30.527344 128.792969 C 30.664062 128.792969 30.78125 128.84375 30.875 128.9375 C 30.972656 129.035156 31.023438 129.152344 31.023438 129.289062 Z M 31.023438 132.375 " fill-opacity="1" fill-rule="nonzero"/><path fill="#c7b299" d="M 19.265625 129.78125 L 30.03125 129.78125 L 30.03125 131.878906 L 19.265625 131.878906 Z M 19.265625 129.78125 " fill-opacity="1" fill-rule="nonzero"/><path fill="#736357" d="M 46.894531 145.703125 C 46.898438 145.734375 46.898438 145.765625 46.894531 145.796875 L 46.894531 148.773438 L 57.113281 148.773438 L 57.113281 146.175781 C 57.113281 146.105469 57.128906 146.039062 57.15625 145.972656 L 56.417969 145.972656 C 53.59375 145.972656 50.25 145.914062 46.894531 145.703125 Z M 46.894531 145.703125 " fill-opacity="1" fill-rule="nonzero"/><path fill="#736357" d="M 67.742188 100.960938 C 67.214844 101.324219 66.632812 101.554688 65.996094 101.648438 C 65.359375 101.746094 64.738281 101.695312 64.125 101.503906 C 64.011719 101.777344 63.867188 102.039062 63.703125 102.289062 C 63.535156 102.535156 63.34375 102.761719 63.128906 102.972656 C 62.914062 103.179688 62.679688 103.367188 62.429688 103.527344 C 62.175781 103.691406 61.910156 103.824219 61.628906 103.933594 C 61.351562 104.039062 61.0625 104.121094 60.765625 104.167969 C 60.472656 104.21875 60.171875 104.238281 59.875 104.226562 C 59.574219 104.21875 59.277344 104.175781 58.988281 104.105469 C 58.695312 104.035156 58.414062 103.9375 58.140625 103.808594 C 57.859375 105.03125 57.035156 106.28125 55.730469 106.699219 C 55.359375 106.820312 54.976562 106.878906 54.582031 106.878906 C 53.949219 106.875 53.347656 106.730469 52.785156 106.441406 C 52.195312 106.945312 49.722656 109.1875 49.539062 111.828125 C 50.417969 111.644531 51.261719 111.757812 52.066406 112.160156 C 52.101562 112.179688 52.136719 112.203125 52.167969 112.222656 C 52.253906 112.132812 52.355469 112.078125 52.476562 112.0625 C 52.675781 112.042969 57.375 111.453125 58.6875 107.058594 C 58.726562 106.929688 58.804688 106.832031 58.925781 106.765625 C 59.046875 106.699219 59.171875 106.6875 59.304688 106.726562 C 59.433594 106.761719 59.535156 106.84375 59.597656 106.960938 C 59.664062 107.082031 59.679688 107.207031 59.640625 107.339844 C 58.542969 111.039062 55.378906 112.367188 53.683594 112.828125 C 54.851562 114.585938 55.199219 118.96875 55.199219 121.550781 C 55.199219 124.792969 54.585938 128.390625 53.953125 130.085938 C 55.371094 130.046875 56.765625 129.84375 58.136719 129.476562 C 61.585938 128.5625 66.40625 126.179688 69.832031 120.003906 C 75.554688 109.636719 70.242188 99.878906 69.304688 98.320312 C 69.140625 99.410156 68.621094 100.289062 67.742188 100.960938 Z M 67.742188 100.960938 " fill-opacity="1" fill-rule="nonzero"/><path fill="#736357" d="M 19.769531 146.238281 L 19.769531 148.773438 L 29.988281 148.773438 L 29.988281 146.195312 C 28.1875 146.289062 26.382812 146.328125 24.652344 146.328125 C 22.921875 146.328125 21.265625 146.292969 19.769531 146.238281 Z M 19.769531 146.238281 " fill-opacity="1" fill-rule="nonzero"/><path fill="#e89449" d="M 37.28125 101.308594 C 52.964844 101.308594 61.898438 93.683594 66.625 87.28125 C 69.667969 83.132812 71.839844 78.570312 73.136719 73.601562 C 73.136719 73.601562 65.082031 98.355469 37.605469 98.355469 C 10.125 98.355469 1.515625 73.582031 1.515625 73.582031 C 2.796875 78.550781 4.949219 83.113281 7.980469 87.261719 C 12.691406 93.664062 21.601562 101.308594 37.28125 101.308594 Z M 37.28125 101.308594 " fill-opacity="1" fill-rule="nonzero"/><path fill="#ffe6cf" d="M 46.21875 86.742188 C 46.21875 87.082031 46.164062 87.417969 46.054688 87.75 C 45.949219 88.082031 45.789062 88.40625 45.578125 88.71875 C 45.367188 89.03125 45.105469 89.332031 44.796875 89.613281 C 44.492188 89.894531 44.140625 90.15625 43.75 90.394531 C 43.359375 90.636719 42.933594 90.851562 42.476562 91.039062 C 42.015625 91.226562 41.53125 91.386719 41.019531 91.515625 C 40.507812 91.644531 39.984375 91.742188 39.441406 91.808594 C 38.898438 91.875 38.351562 91.910156 37.796875 91.910156 C 37.246094 91.910156 36.695312 91.875 36.15625 91.808594 C 35.613281 91.742188 35.085938 91.644531 34.574219 91.515625 C 34.0625 91.386719 33.578125 91.226562 33.121094 91.039062 C 32.660156 90.851562 32.234375 90.636719 31.84375 90.394531 C 31.453125 90.15625 31.101562 89.894531 30.796875 89.613281 C 30.488281 89.332031 30.230469 89.03125 30.019531 88.71875 C 29.804688 88.40625 29.648438 88.082031 29.539062 87.75 C 29.429688 87.417969 29.378906 87.082031 29.378906 86.742188 C 29.378906 86.402344 29.429688 86.066406 29.539062 85.734375 C 29.648438 85.398438 29.804688 85.078125 30.019531 84.761719 C 30.230469 84.449219 30.488281 84.152344 30.796875 83.871094 C 31.101562 83.585938 31.453125 83.328125 31.84375 83.085938 C 32.234375 82.847656 32.660156 82.632812 33.121094 82.445312 C 33.578125 82.253906 34.0625 82.097656 34.574219 81.964844 C 35.085938 81.835938 35.613281 81.738281 36.15625 81.671875 C 36.695312 81.605469 37.246094 81.574219 37.796875 81.574219 C 38.351562 81.574219 38.898438 81.605469 39.441406 81.671875 C 39.984375 81.738281 40.507812 81.835938 41.019531 81.964844 C 41.53125 82.097656 42.015625 82.253906 42.476562 82.445312 C 42.933594 82.632812 43.359375 82.847656 43.75 83.085938 C 44.140625 83.328125 44.492188 83.585938 44.796875 83.871094 C 45.105469 84.152344 45.367188 84.449219 45.578125 84.761719 C 45.789062 85.078125 45.949219 85.398438 46.054688 85.734375 C 46.164062 86.066406 46.21875 86.402344 46.21875 86.742188 Z M 46.21875 86.742188 " fill-opacity="1" fill-rule="nonzero"/><path fill="#ffe6cf" d="M 48.476562 48.105469 C 45.078125 46.917969 41.578125 46.292969 37.976562 46.238281 C 34.375 46.179688 30.855469 46.695312 27.417969 47.777344 C 21.742188 49.550781 17.96875 52.214844 16.195312 55.667969 C 14.925781 58.171875 13.527344 60.605469 12.003906 62.964844 C 14.820312 59.109375 19.382812 50.503906 32.246094 48.675781 C 32.222656 48.738281 32.214844 48.800781 32.214844 48.867188 C 32.214844 49.894531 34.882812 50.730469 38.175781 50.730469 C 41.472656 50.730469 44.109375 49.90625 44.136719 48.882812 C 56.933594 51.132812 60.3125 59.578125 62.414062 62.605469 C 61.078125 60.523438 59.75 58.203125 58.453125 55.667969 C 56.792969 52.421875 53.4375 49.878906 48.476562 48.105469 Z M 48.476562 48.105469 " fill-opacity="1" fill-rule="nonzero"/><path fill="#ffe6cf" d="M 32.324219 52.382812 C 32.324219 52.652344 32.273438 52.910156 32.167969 53.15625 C 32.066406 53.40625 31.917969 53.625 31.730469 53.8125 C 31.539062 54.003906 31.320312 54.148438 31.070312 54.25 C 30.820312 54.355469 30.5625 54.40625 30.292969 54.40625 C 30.023438 54.40625 29.765625 54.355469 29.515625 54.25 C 29.265625 54.148438 29.046875 54.003906 28.855469 53.8125 C 28.667969 53.625 28.519531 53.40625 28.417969 53.15625 C 28.3125 52.910156 28.261719 52.652344 28.261719 52.382812 C 28.261719 52.117188 28.3125 51.859375 28.417969 51.609375 C 28.519531 51.363281 28.667969 51.144531 28.855469 50.953125 C 29.046875 50.765625 29.265625 50.617188 29.515625 50.515625 C 29.765625 50.414062 30.023438 50.363281 30.292969 50.363281 C 30.5625 50.363281 30.820312 50.414062 31.070312 50.515625 C 31.320312 50.617188 31.539062 50.765625 31.730469 50.953125 C 31.917969 51.144531 32.066406 51.363281 32.167969 51.609375 C 32.273438 51.859375 32.324219 52.117188 32.324219 52.382812 Z M 32.324219 52.382812 " fill-opacity="1" fill-rule="nonzero"/><path fill="#534741" d="M 63.472656 144.855469 C 62.523438 139.667969 61.976562 134.4375 61.832031 129.167969 C 60.839844 129.652344 59.8125 130.046875 58.75 130.347656 C 58.75 130.347656 59.546875 140.5625 60.980469 144.929688 C 62.089844 144.910156 62.953125 144.875 63.472656 144.855469 Z M 63.472656 144.855469 " fill-opacity="1" fill-rule="nonzero"/><path fill="#534741" d="M 16.269531 144.929688 C 19.320312 127.464844 14.277344 114.417969 14.277344 114.417969 C 14.300781 114.527344 16.8125 125.429688 13.394531 144.890625 C 13.960938 144.9375 14.953125 145.015625 16.242188 145.09375 Z M 16.269531 144.929688 " fill-opacity="1" fill-rule="nonzero"/><path fill="#534741" d="M 14.21875 142.277344 L 32.996094 143.238281 L 37.722656 136.804688 L 34.1875 144.867188 C 34.1875 144.867188 21.433594 146.148438 13.394531 144.867188 Z M 14.21875 142.277344 " fill-opacity="1" fill-rule="nonzero"/><path fill="#534741" d="M 38.714844 136.675781 L 43.601562 143.035156 L 63.082031 142.578125 L 63.476562 144.855469 C 63.476562 144.855469 49.726562 145.945312 42.683594 144.367188 Z M 38.714844 136.675781 " fill-opacity="1" fill-rule="nonzero"/><path fill="#534741" d="M 32.476562 108.574219 C 32.445312 108.550781 32.417969 108.523438 32.394531 108.492188 C 31.949219 108.648438 31.496094 108.726562 31.023438 108.726562 C 30.742188 108.726562 30.460938 108.699219 30.1875 108.640625 C 29.265625 108.449219 28.199219 107.699219 27.515625 106.84375 C 27.191406 107.164062 26.816406 107.398438 26.386719 107.550781 C 25.957031 107.699219 25.515625 107.75 25.0625 107.699219 C 24.144531 107.597656 23.363281 106.921875 22.921875 106.148438 C 22.410156 106.574219 21.828125 106.851562 21.175781 106.980469 C 20.523438 107.113281 19.878906 107.078125 19.246094 106.882812 C 17.941406 106.464844 17.117188 105.226562 16.832031 103.996094 C 16.558594 104.125 16.277344 104.222656 15.984375 104.292969 C 15.695312 104.363281 15.398438 104.402344 15.097656 104.414062 C 14.800781 104.421875 14.5 104.402344 14.207031 104.355469 C 13.910156 104.304688 13.621094 104.226562 13.34375 104.117188 C 13.0625 104.007812 12.796875 103.875 12.542969 103.710938 C 12.292969 103.550781 12.058594 103.363281 11.84375 103.15625 C 11.628906 102.945312 11.4375 102.71875 11.273438 102.472656 C 11.105469 102.222656 10.964844 101.960938 10.847656 101.683594 C 10.234375 101.882812 9.609375 101.933594 8.972656 101.835938 C 8.332031 101.742188 7.75 101.511719 7.21875 101.148438 C 6.425781 100.542969 5.921875 99.75 5.714844 98.777344 C 5.550781 99.082031 5.367188 99.488281 5.171875 99.972656 C 5.25 100.242188 5.355469 100.5 5.484375 100.75 C 5.613281 101 5.769531 101.234375 5.945312 101.457031 C 6.121094 101.675781 6.316406 101.875 6.53125 102.058594 C 6.746094 102.242188 6.976562 102.398438 7.222656 102.539062 C 7.46875 102.675781 7.726562 102.785156 7.996094 102.871094 C 8.265625 102.960938 8.539062 103.019531 8.820312 103.054688 C 9.101562 103.085938 9.382812 103.09375 9.664062 103.070312 C 9.945312 103.050781 10.222656 103 10.492188 102.925781 C 11.027344 103.953125 11.835938 104.671875 12.921875 105.082031 C 14.039062 105.476562 15.148438 105.460938 16.253906 105.03125 C 16.332031 105.738281 16.59375 106.371094 17.035156 106.929688 C 17.476562 107.488281 18.03125 107.894531 18.703125 108.140625 C 19.414062 108.386719 20.136719 108.441406 20.875 108.300781 C 21.613281 108.160156 22.269531 107.847656 22.835938 107.355469 C 23.09375 107.695312 23.402344 107.976562 23.765625 108.203125 C 24.128906 108.425781 24.519531 108.578125 24.941406 108.65625 C 25.359375 108.738281 25.78125 108.738281 26.199219 108.660156 C 26.621094 108.582031 27.011719 108.429688 27.375 108.207031 C 28.742188 109.636719 31.003906 109.890625 32.839844 109.148438 C 32.921875 109.117188 33 109.078125 33.074219 109.03125 Z M 32.476562 108.574219 " fill-opacity="1" fill-rule="nonzero"/><path fill="#534741" d="M 67.746094 101.148438 C 67.21875 101.511719 66.636719 101.742188 66 101.835938 C 65.363281 101.929688 64.738281 101.878906 64.125 101.683594 C 64.011719 101.960938 63.871094 102.222656 63.703125 102.472656 C 63.535156 102.71875 63.34375 102.949219 63.128906 103.15625 C 62.914062 103.367188 62.683594 103.550781 62.429688 103.714844 C 62.179688 103.875 61.914062 104.011719 61.632812 104.117188 C 61.355469 104.226562 61.066406 104.304688 60.769531 104.355469 C 60.472656 104.40625 60.175781 104.425781 59.875 104.414062 C 59.578125 104.402344 59.28125 104.363281 58.988281 104.292969 C 58.699219 104.222656 58.417969 104.125 58.144531 103.996094 C 57.859375 105.214844 57.035156 106.464844 55.730469 106.882812 C 54.664062 107.210938 53.640625 107.097656 52.667969 106.550781 C 52.070312 107.078125 51.53125 107.65625 51.050781 108.289062 C 51.480469 108.054688 51.84375 107.742188 52.136719 107.355469 C 52.707031 107.847656 53.363281 108.160156 54.101562 108.300781 C 54.839844 108.441406 55.5625 108.386719 56.273438 108.140625 C 56.945312 107.894531 57.5 107.492188 57.941406 106.929688 C 58.382812 106.371094 58.644531 105.738281 58.722656 105.03125 C 59.828125 105.460938 60.9375 105.476562 62.054688 105.082031 C 63.140625 104.671875 63.953125 103.953125 64.484375 102.925781 C 64.757812 103 65.035156 103.050781 65.316406 103.070312 C 65.597656 103.09375 65.878906 103.085938 66.160156 103.054688 C 66.441406 103.019531 66.714844 102.960938 66.984375 102.871094 C 67.25 102.785156 67.507812 102.675781 67.757812 102.539062 C 68.003906 102.398438 68.234375 102.242188 68.449219 102.058594 C 68.664062 101.875 68.859375 101.675781 69.035156 101.457031 C 69.210938 101.234375 69.363281 101 69.492188 100.75 C 69.625 100.5 69.726562 100.242188 69.804688 99.972656 C 69.613281 99.488281 69.429688 99.09375 69.265625 98.777344 C 69.050781 99.753906 68.546875 100.542969 67.746094 101.148438 Z M 67.746094 101.148438 " fill-opacity="1" fill-rule="nonzero"/><path fill="#534741" d="M 54.558594 127.734375 C 54.410156 128.535156 54.207031 129.320312 53.945312 130.09375 C 55.363281 130.054688 56.757812 129.851562 58.125 129.484375 C 61.574219 128.570312 66.398438 126.1875 69.820312 120.011719 C 71.480469 117.039062 72.351562 113.859375 72.429688 110.460938 C 72.335938 110.9375 69.351562 125.746094 54.558594 127.734375 Z M 54.558594 127.734375 " fill-opacity="1" fill-rule="nonzero"/><path fill="#534741" d="M 13.308594 114.632812 L 12.082031 128.515625 L 14.152344 128.03125 C 14.152344 128.03125 15.421875 118.4375 13.308594 114.632812 Z M 13.308594 114.632812 " fill-opacity="1" fill-rule="nonzero"/><path fill="#534741" d="M 5.84375 145.078125 L 11.640625 145.078125 L 11.640625 147.707031 L 5.855469 147.707031 Z M 5.84375 145.078125 " fill-opacity="1" fill-rule="nonzero"/><path fill="#c7b299" d="M 5.84375 134.308594 L 11.640625 134.308594 L 11.640625 132.5 L 5.855469 132.5 Z M 5.84375 134.308594 " fill-opacity="1" fill-rule="nonzero"/><path fill="#c7b299" d="M 4.769531 99.976562 C 4.769531 99.976562 2.6875 116.515625 4.273438 128.164062 L 2.25 128.371094 C 2.25 128.371094 1.5625 106.457031 4.769531 99.976562 Z M 4.769531 99.976562 " fill-opacity="1" fill-rule="nonzero"/><path fill="#c7b299" d="M 59.628906 107.339844 C 59.628906 107.339844 60.628906 110.996094 54.421875 114.632812 L 53.671875 112.828125 C 53.671875 112.828125 58.304688 110.363281 59.628906 107.339844 Z M 59.628906 107.339844 " fill-opacity="1" fill-rule="nonzero"/><path fill="#c17633" d="M 58.21875 13.023438 C 53.558594 18.160156 49.699219 47.007812 49.699219 47.007812 C 49.699219 47.007812 49.792969 47.226562 49.960938 47.617188 C 54.554688 49.449219 57.695312 52.007812 59.339844 55.226562 C 60.367188 57.238281 61.417969 59.105469 62.46875 60.828125 C 66.625 54.421875 62.761719 8.003906 58.21875 13.023438 Z M 58.21875 13.023438 " fill-opacity="1" fill-rule="nonzero"/><path fill="#c17633" d="M 16.457031 13.023438 C 21.117188 18.160156 24.976562 47.007812 24.976562 47.007812 C 24.976562 47.007812 24.882812 47.226562 24.714844 47.617188 C 20.121094 49.449219 16.980469 52.007812 15.335938 55.226562 C 14.308594 57.238281 13.257812 59.105469 12.207031 60.828125 C 8.050781 54.421875 11.914062 8.003906 16.457031 13.023438 Z M 16.457031 13.023438 " fill-opacity="1" fill-rule="nonzero"/><path fill="#534741" d="M 52.886719 72.816406 L 49.871094 83.878906 L 49.023438 83.878906 C 48.375 83.878906 47.746094 83.761719 47.140625 83.53125 L 50.054688 72.816406 Z M 52.886719 72.816406 " fill-opacity="1" fill-rule="nonzero"/><path fill="#534741" d="M 62.136719 75.113281 L 62.136719 81.585938 C 62.136719 81.890625 62.078125 82.183594 61.960938 82.464844 C 61.84375 82.742188 61.675781 82.992188 61.460938 83.207031 C 61.242188 83.421875 60.996094 83.585938 60.710938 83.703125 C 60.429688 83.820312 60.136719 83.878906 59.828125 83.878906 L 52.125 83.878906 L 55.136719 72.816406 L 59.835938 72.816406 C 60.140625 72.816406 60.433594 72.875 60.714844 72.992188 C 61 73.109375 61.246094 73.277344 61.460938 73.492188 C 61.675781 73.707031 61.84375 73.953125 61.960938 74.234375 C 62.078125 74.515625 62.136719 74.808594 62.136719 75.113281 Z M 62.136719 75.113281 " fill-opacity="1" fill-rule="nonzero"/><path fill="#534741" d="M 22.472656 72.816406 L 19.460938 83.878906 L 16.632812 83.878906 L 19.640625 72.816406 Z M 22.472656 72.816406 " fill-opacity="1" fill-rule="nonzero"/><path fill="#534741" d="M 33.414062 76.609375 C 33.417969 77.292969 33.289062 77.949219 33.035156 78.582031 C 32.78125 79.214844 32.414062 79.777344 31.9375 80.269531 L 29.984375 82.285156 C 29.484375 82.792969 28.910156 83.1875 28.25 83.464844 C 27.59375 83.742188 26.90625 83.882812 26.191406 83.882812 L 21.714844 83.882812 L 24.722656 72.820312 L 29.59375 72.820312 C 30.097656 72.824219 30.585938 72.917969 31.050781 73.113281 C 31.519531 73.304688 31.929688 73.578125 32.289062 73.933594 C 32.644531 74.285156 32.921875 74.695312 33.117188 75.160156 C 33.3125 75.625 33.410156 76.105469 33.414062 76.609375 Z M 33.414062 76.609375 " fill-opacity="1" fill-rule="nonzero"/><path fill="#302621" d="M 59.835938 71.5 L 45.621094 71.5 C 44.878906 71.5 44.175781 71.65625 43.5 71.960938 C 42.828125 72.269531 42.25 72.699219 41.765625 73.253906 L 33.460938 73.253906 C 32.972656 72.699219 32.394531 72.269531 31.71875 71.960938 C 31.042969 71.65625 30.335938 71.503906 29.59375 71.5 L 15.382812 71.5 C 14.902344 71.5 14.4375 71.59375 13.992188 71.777344 C 13.546875 71.960938 13.15625 72.21875 12.8125 72.558594 C 12.472656 72.898438 12.210938 73.289062 12.027344 73.730469 C 11.839844 74.171875 11.746094 74.632812 11.746094 75.113281 L 11.746094 81.585938 C 11.746094 82.0625 11.839844 82.523438 12.023438 82.96875 C 12.207031 83.410156 12.472656 83.800781 12.8125 84.136719 C 13.152344 84.476562 13.542969 84.738281 13.988281 84.921875 C 14.433594 85.105469 14.894531 85.199219 15.375 85.199219 L 26.191406 85.199219 C 27.085938 85.195312 27.945312 85.023438 28.769531 84.671875 C 29.589844 84.324219 30.3125 83.832031 30.9375 83.191406 L 32.882812 81.183594 C 33.640625 80.398438 34.171875 79.484375 34.472656 78.4375 L 40.726562 78.4375 C 41.027344 79.484375 41.554688 80.398438 42.316406 81.183594 L 44.269531 83.199219 C 44.890625 83.835938 45.613281 84.332031 46.4375 84.679688 C 47.261719 85.027344 48.121094 85.203125 49.015625 85.203125 L 59.835938 85.203125 C 60.316406 85.203125 60.78125 85.113281 61.226562 84.929688 C 61.667969 84.746094 62.0625 84.484375 62.402344 84.144531 C 62.742188 83.808594 63.007812 83.417969 63.191406 82.972656 C 63.375 82.53125 63.46875 82.070312 63.46875 81.589844 L 63.46875 75.113281 C 63.46875 74.632812 63.375 74.171875 63.191406 73.730469 C 63.007812 73.285156 62.742188 72.894531 62.402344 72.558594 C 62.0625 72.21875 61.667969 71.957031 61.226562 71.773438 C 60.78125 71.589844 60.316406 71.5 59.835938 71.5 Z M 31.707031 80.035156 L 29.75 82.050781 C 29.285156 82.53125 28.742188 82.902344 28.128906 83.160156 C 27.511719 83.421875 26.867188 83.554688 26.199219 83.554688 L 15.382812 83.554688 C 15.121094 83.554688 14.867188 83.503906 14.628906 83.402344 C 14.386719 83.304688 14.171875 83.160156 13.988281 82.976562 C 13.804688 82.792969 13.660156 82.582031 13.558594 82.339844 C 13.460938 82.097656 13.410156 81.847656 13.410156 81.589844 L 13.410156 75.113281 C 13.410156 74.851562 13.460938 74.601562 13.558594 74.359375 C 13.660156 74.121094 13.804688 73.90625 13.988281 73.722656 C 14.171875 73.539062 14.386719 73.398438 14.628906 73.296875 C 14.867188 73.195312 15.121094 73.144531 15.382812 73.144531 L 29.59375 73.144531 C 30.054688 73.144531 30.5 73.234375 30.925781 73.410156 C 31.355469 73.585938 31.730469 73.835938 32.058594 74.160156 C 32.382812 74.484375 32.636719 74.859375 32.8125 75.285156 C 32.992188 75.707031 33.082031 76.148438 33.082031 76.609375 C 33.089844 77.9375 32.625 79.078125 31.699219 80.035156 Z M 34.71875 76.789062 C 34.71875 76.734375 34.71875 76.675781 34.71875 76.617188 C 34.71875 76.027344 34.613281 75.457031 34.414062 74.902344 L 40.757812 74.902344 C 40.558594 75.457031 40.457031 76.027344 40.453125 76.617188 C 40.453125 76.675781 40.453125 76.734375 40.453125 76.789062 Z M 61.796875 81.585938 C 61.796875 81.847656 61.746094 82.097656 61.644531 82.335938 C 61.542969 82.578125 61.402344 82.789062 61.21875 82.976562 C 61.03125 83.160156 60.816406 83.300781 60.578125 83.402344 C 60.335938 83.5 60.082031 83.550781 59.820312 83.550781 L 49.023438 83.550781 C 48.355469 83.550781 47.710938 83.417969 47.09375 83.15625 C 46.476562 82.898438 45.9375 82.527344 45.46875 82.046875 L 43.515625 80.035156 C 42.589844 79.078125 42.128906 77.9375 42.132812 76.609375 C 42.132812 76.148438 42.222656 75.707031 42.398438 75.28125 C 42.574219 74.855469 42.828125 74.480469 43.15625 74.152344 C 43.480469 73.828125 43.859375 73.578125 44.285156 73.402344 C 44.714844 73.226562 45.15625 73.136719 45.621094 73.136719 L 59.835938 73.136719 C 60.097656 73.136719 60.351562 73.1875 60.589844 73.285156 C 60.832031 73.386719 61.046875 73.527344 61.230469 73.714844 C 61.417969 73.898438 61.558594 74.109375 61.660156 74.351562 C 61.761719 74.589844 61.8125 74.84375 61.8125 75.101562 Z M 61.796875 81.585938 " fill-opacity="1" fill-rule="nonzero"/><path fill="#302621" d="M 43.3125 86.523438 C 43.09375 86.460938 42.886719 86.488281 42.691406 86.601562 C 42.492188 86.710938 42.367188 86.878906 42.308594 87.097656 C 42.28125 87.179688 42.003906 87.886719 40.628906 87.886719 C 40.234375 87.886719 39.878906 87.773438 39.554688 87.546875 C 39.234375 87.320312 39.011719 87.019531 38.886719 86.648438 C 40.558594 86.390625 41.777344 85.601562 41.777344 84.667969 C 41.777344 83.523438 39.9375 82.59375 37.675781 82.59375 C 35.410156 82.59375 33.574219 83.523438 33.574219 84.667969 C 33.574219 85.652344 34.933594 86.476562 36.753906 86.6875 C 36.621094 87.046875 36.398438 87.339844 36.078125 87.558594 C 35.761719 87.78125 35.410156 87.890625 35.027344 87.890625 C 33.644531 87.890625 33.367188 87.183594 33.351562 87.125 C 33.292969 86.90625 33.164062 86.738281 32.96875 86.621094 C 32.769531 86.507812 32.5625 86.476562 32.339844 86.535156 C 32.121094 86.59375 31.949219 86.71875 31.835938 86.914062 C 31.71875 87.113281 31.691406 87.320312 31.746094 87.539062 C 31.769531 87.621094 32.300781 89.539062 35.027344 89.539062 C 35.582031 89.542969 36.105469 89.421875 36.601562 89.171875 C 37.097656 88.917969 37.503906 88.566406 37.824219 88.113281 C 38.144531 88.566406 38.550781 88.917969 39.046875 89.171875 C 39.542969 89.421875 40.070312 89.542969 40.625 89.539062 C 43.347656 89.539062 43.878906 87.621094 43.902344 87.539062 C 43.960938 87.320312 43.933594 87.109375 43.820312 86.910156 C 43.703125 86.710938 43.535156 86.582031 43.3125 86.523438 Z M 43.3125 86.523438 " fill-opacity="1" fill-rule="nonzero"/><g clip-path="url(#1c5a0f5dea)"><path fill="#302621" d="M 73.960938 72.472656 C 71.609375 71.75 68.730469 69.121094 65.765625 65.125 C 68.679688 61.511719 68.195312 43.585938 67.964844 37.988281 C 67.492188 26.621094 65.917969 10.945312 62.992188 4.203125 C 62.59375 3.253906 61.316406 0.355469 59.109375 0.71875 C 57.035156 1.054688 55.046875 3.570312 52.863281 8.644531 C 51.238281 12.402344 49.542969 17.542969 47.816406 23.921875 C 45.167969 33.707031 43.253906 43.476562 42.898438 45.347656 C 39.097656 44.753906 35.304688 44.785156 31.515625 45.445312 C 31.207031 43.863281 29.277344 33.898438 26.582031 23.921875 C 24.855469 17.539062 23.15625 12.402344 21.546875 8.640625 C 19.347656 3.570312 17.359375 1.054688 15.285156 0.71875 C 13.074219 0.355469 11.820312 3.253906 11.40625 4.203125 C 8.476562 10.945312 6.894531 26.621094 6.429688 37.996094 C 6.199219 43.667969 5.703125 62.082031 8.769531 65.285156 C 5.84375 69.1875 3.007812 71.757812 0.6875 72.472656 C 0.488281 72.539062 0.332031 72.660156 0.226562 72.839844 C 0.117188 73.019531 0.0820312 73.210938 0.121094 73.417969 C 0.175781 73.695312 1.441406 79.992188 5.992188 86.730469 C 5.4375 86.882812 4.960938 87.164062 4.566406 87.582031 C 4.171875 88 3.914062 88.488281 3.792969 89.046875 C 3.671875 89.609375 3.707031 90.160156 3.898438 90.699219 C 4.085938 91.242188 4.402344 91.695312 4.847656 92.058594 C 3.976562 92.878906 3.511719 93.882812 3.445312 95.070312 C 3.421875 95.8125 3.625 96.488281 4.058594 97.09375 C 4.253906 97.351562 4.496094 97.566406 4.773438 97.738281 C 3.304688 100.265625 0.394531 107.964844 1.40625 128.414062 C 1.414062 128.601562 1.480469 128.765625 1.605469 128.910156 C 1.726562 129.050781 1.882812 129.140625 2.066406 129.179688 C 2.152344 129.195312 3.042969 129.375 4.515625 129.519531 C 4.511719 130.148438 4.644531 130.746094 4.914062 131.3125 C 4.660156 131.472656 4.535156 131.703125 4.53125 132.003906 L 4.53125 148.203125 C 4.53125 148.429688 4.613281 148.625 4.777344 148.785156 C 4.9375 148.945312 5.132812 149.027344 5.363281 149.023438 L 12.136719 149.023438 C 12.367188 149.023438 12.5625 148.945312 12.722656 148.785156 C 12.882812 148.625 12.964844 148.429688 12.964844 148.203125 L 12.964844 146.164062 C 13.628906 146.222656 15.675781 146.390625 18.445312 146.515625 L 18.445312 149.261719 C 18.445312 149.488281 18.527344 149.683594 18.6875 149.84375 C 18.851562 150.003906 19.046875 150.085938 19.273438 150.082031 L 30.484375 150.082031 C 30.710938 150.082031 30.90625 150.003906 31.066406 149.84375 C 31.230469 149.679688 31.308594 149.488281 31.308594 149.261719 L 31.308594 146.433594 C 32.433594 146.355469 33.546875 146.261719 34.628906 146.128906 C 34.941406 146.089844 35.160156 145.929688 35.285156 145.640625 L 38.3125 138.742188 L 41.625 145.214844 C 41.757812 145.476562 41.972656 145.625 42.269531 145.65625 C 43.355469 145.773438 44.464844 145.871094 45.582031 145.960938 L 45.582031 149.285156 C 45.582031 149.511719 45.660156 149.707031 45.824219 149.867188 C 45.984375 150.027344 46.179688 150.109375 46.40625 150.109375 L 57.617188 150.109375 C 57.847656 150.109375 58.042969 150.027344 58.203125 149.867188 C 58.363281 149.707031 58.445312 149.511719 58.445312 149.285156 L 58.445312 146.308594 C 61.789062 146.273438 64.054688 146.164062 64.105469 146.164062 C 64.226562 146.15625 64.335938 146.125 64.441406 146.070312 C 64.550781 146.015625 64.640625 145.941406 64.710938 145.847656 C 64.785156 145.753906 64.835938 145.648438 64.867188 145.535156 C 64.894531 145.417969 64.898438 145.304688 64.878906 145.1875 C 63.859375 139.789062 63.28125 134.347656 63.148438 128.859375 C 65.871094 127.292969 68.71875 124.757812 70.980469 120.675781 C 77.296875 109.246094 70.933594 98.484375 70.3125 97.484375 C 70.539062 97.328125 70.734375 97.140625 70.898438 96.921875 C 71.332031 96.316406 71.535156 95.644531 71.511719 94.902344 C 71.511719 93.742188 70.882812 92.667969 70.109375 91.886719 C 70.566406 91.511719 70.886719 91.042969 71.074219 90.484375 C 71.257812 89.921875 71.28125 89.355469 71.140625 88.785156 C 71 88.210938 70.714844 87.71875 70.289062 87.308594 C 69.863281 86.898438 69.363281 86.628906 68.785156 86.507812 C 73.21875 79.863281 74.472656 73.699219 74.53125 73.433594 C 74.574219 73.226562 74.542969 73.027344 74.433594 72.84375 C 74.324219 72.660156 74.167969 72.535156 73.960938 72.472656 Z M 49.421875 24.335938 C 54.628906 5.101562 58.117188 2.550781 59.375 2.34375 C 59.957031 2.246094 60.746094 3.191406 61.472656 4.859375 C 63.808594 10.234375 65.707031 23.269531 66.3125 38.0625 C 66.890625 52.25 65.980469 61.414062 64.75 63.714844 C 62.851562 60.945312 61.148438 58.0625 59.632812 55.070312 C 57.816406 51.515625 54.210938 48.753906 48.914062 46.863281 C 47.476562 46.355469 46.007812 45.949219 44.515625 45.644531 C 44.886719 43.765625 46.789062 34.050781 49.421875 24.335938 Z M 8.070312 38.0625 C 8.683594 23.269531 10.578125 10.234375 12.914062 4.859375 C 13.640625 3.191406 14.421875 2.246094 15.003906 2.34375 C 16.265625 2.550781 19.761719 5.101562 24.964844 24.335938 C 27.660156 34.289062 29.589844 44.238281 29.867188 45.757812 C 28.90625 45.972656 27.945312 46.226562 27 46.519531 C 20.972656 48.402344 16.933594 51.28125 14.992188 55.058594 C 13.441406 58.125 11.691406 61.070312 9.738281 63.902344 C 8.472656 61.992188 7.484375 52.695312 8.070312 38.0625 Z M 7.152344 91.808594 C 7.125 91.640625 7.054688 91.496094 6.941406 91.371094 C 6.824219 91.246094 6.683594 91.167969 6.519531 91.128906 C 6.335938 91.089844 6.171875 91.015625 6.019531 90.914062 C 5.867188 90.808594 5.738281 90.683594 5.632812 90.53125 C 5.53125 90.378906 5.457031 90.214844 5.414062 90.035156 C 5.371094 89.855469 5.363281 89.675781 5.390625 89.496094 C 5.417969 89.3125 5.476562 89.140625 5.566406 88.980469 C 5.65625 88.820312 5.773438 88.683594 5.917969 88.566406 C 6.058594 88.453125 6.21875 88.367188 6.394531 88.308594 C 6.570312 88.253906 6.75 88.230469 6.933594 88.242188 L 7.058594 88.242188 C 11.84375 94.660156 20.664062 102.15625 35.871094 102.59375 C 35.820312 102.742188 35.8125 102.898438 35.847656 103.050781 C 35.914062 103.316406 36.03125 103.964844 35.710938 104.152344 C 35.601562 104.222656 35.511719 104.3125 35.441406 104.421875 C 35.375 104.535156 35.335938 104.65625 35.324219 104.789062 C 35.316406 104.917969 35.335938 105.042969 35.382812 105.164062 C 35.433594 105.285156 35.507812 105.390625 35.605469 105.476562 C 35.808594 105.664062 35.910156 105.898438 35.914062 106.171875 C 35.933594 106.449219 35.855469 106.691406 35.671875 106.898438 C 35.394531 107.113281 35.082031 107.207031 34.734375 107.183594 C 34.40625 107.207031 34.109375 107.117188 33.847656 106.917969 C 33.699219 106.765625 33.519531 106.679688 33.308594 106.664062 C 33.097656 106.648438 32.90625 106.707031 32.742188 106.835938 C 32.058594 107.351562 31.296875 107.523438 30.457031 107.355469 C 29.714844 107.199219 28.671875 106.371094 28.269531 105.625 C 28.117188 105.339844 27.878906 105.191406 27.554688 105.1875 C 27.230469 105.175781 26.984375 105.3125 26.824219 105.597656 C 26.65625 105.867188 26.425781 106.078125 26.136719 106.21875 C 25.847656 106.363281 25.542969 106.421875 25.222656 106.394531 C 24.683594 106.332031 24.070312 105.726562 23.855469 105.042969 C 23.753906 104.726562 23.539062 104.535156 23.210938 104.476562 C 22.882812 104.417969 22.617188 104.519531 22.410156 104.78125 C 22.078125 105.1875 21.660156 105.46875 21.15625 105.625 C 20.648438 105.777344 20.144531 105.78125 19.640625 105.628906 C 18.652344 105.324219 18.078125 104.125 18.039062 103.167969 C 18.027344 102.839844 17.871094 102.605469 17.578125 102.460938 C 17.285156 102.320312 17.003906 102.339844 16.734375 102.527344 C 16.320312 102.8125 15.863281 102.992188 15.359375 103.058594 C 14.859375 103.128906 14.367188 103.078125 13.890625 102.914062 C 13.417969 102.746094 13.011719 102.476562 12.671875 102.109375 C 12.332031 101.738281 12.097656 101.3125 11.96875 100.832031 C 11.9375 100.710938 11.882812 100.601562 11.800781 100.503906 C 11.71875 100.40625 11.625 100.332031 11.507812 100.28125 C 11.394531 100.226562 11.273438 100.203125 11.148438 100.203125 C 11.023438 100.207031 10.902344 100.234375 10.789062 100.292969 C 10.339844 100.511719 9.863281 100.601562 9.363281 100.5625 C 8.863281 100.523438 8.40625 100.363281 7.996094 100.074219 C 7.257812 99.550781 6.808594 98.386719 6.949219 97.367188 C 6.949219 97.367188 6.949219 97.34375 6.949219 97.332031 C 6.949219 97.324219 6.949219 97.257812 6.949219 97.21875 C 6.949219 97.179688 6.949219 97.179688 6.949219 97.15625 C 6.945312 97.117188 6.9375 97.078125 6.925781 97.039062 C 6.925781 97.019531 6.925781 97.003906 6.925781 96.984375 C 6.886719 96.878906 6.828125 96.78125 6.75 96.695312 L 6.714844 96.667969 C 6.683594 96.640625 6.652344 96.617188 6.617188 96.59375 L 6.5625 96.558594 C 6.53125 96.539062 6.496094 96.523438 6.460938 96.511719 L 6.398438 96.488281 C 6.363281 96.476562 6.328125 96.46875 6.292969 96.464844 L 6.0625 96.464844 C 5.789062 96.46875 5.574219 96.355469 5.417969 96.132812 C 5.210938 95.824219 5.117188 95.480469 5.136719 95.109375 C 5.136719 94.179688 5.980469 93.136719 6.789062 92.671875 C 6.933594 92.578125 7.039062 92.453125 7.105469 92.296875 C 7.171875 92.140625 7.1875 91.976562 7.152344 91.808594 Z M 50.886719 106.40625 C 49.765625 107.589844 48.253906 109.617188 48.191406 111.984375 L 47.867188 112.167969 C 47.65625 112.289062 47.457031 112.40625 47.253906 112.492188 L 46.804688 105.480469 Z M 54.496094 131.40625 L 54.601562 131.40625 L 55.035156 131.378906 L 55.105469 131.378906 L 55.644531 131.324219 L 55.757812 131.308594 L 56.234375 131.246094 L 56.367188 131.226562 L 56.976562 131.128906 L 57.078125 131.109375 L 57.425781 131.039062 L 57.425781 131.574219 L 47.316406 131.574219 L 47.316406 130.140625 L 50.832031 130.140625 C 51.265625 130.929688 51.796875 131.359375 52.414062 131.386719 L 52.449219 131.386719 L 52.605469 131.402344 L 53.628906 131.402344 C 53.902344 131.417969 54.1875 131.410156 54.5 131.394531 Z M 53.847656 120.648438 C 53.847656 120.957031 53.847656 121.261719 53.847656 121.566406 C 53.847656 124.636719 53.234375 128.210938 52.648438 129.746094 L 52.5625 129.746094 C 52.355469 129.527344 52.203125 129.277344 52.109375 128.992188 C 51.515625 127.582031 51.148438 125.085938 51.121094 122.285156 C 52.363281 121.886719 53.257812 121.359375 53.851562 120.636719 Z M 52.605469 114.925781 C 52.648438 115.160156 52.691406 115.40625 52.738281 115.660156 C 52.976562 116.953125 53.273438 118.566406 52.695312 119.4375 C 52.285156 120.046875 51.472656 120.5 50.246094 120.804688 C 49.046875 121.109375 47.324219 121.292969 45.90625 120.609375 C 44.164062 119.765625 43.714844 117.199219 44.035156 115.167969 C 44.105469 114.839844 44.257812 114.546875 44.484375 114.296875 C 44.710938 114.046875 44.984375 113.871094 45.308594 113.765625 C 45.628906 114.019531 45.992188 114.179688 46.398438 114.246094 C 46.800781 114.316406 47.195312 114.285156 47.582031 114.152344 C 47.984375 114.011719 48.363281 113.828125 48.71875 113.601562 C 48.929688 113.476562 49.140625 113.359375 49.363281 113.257812 C 50.070312 112.96875 50.765625 112.996094 51.449219 113.339844 C 52.09375 113.679688 52.480469 114.203125 52.609375 114.910156 Z M 47.511719 123.726562 L 45.519531 123.636719 L 46 122.414062 C 46.449219 122.550781 46.90625 122.640625 47.375 122.683594 Z M 43.453125 120.609375 C 43.75 121.023438 44.105469 121.378906 44.519531 121.675781 L 43.730469 123.683594 L 40.667969 122.84375 C 42.242188 122.121094 43.046875 121.25 43.453125 120.59375 Z M 45.578125 112.042969 C 45.316406 112.0625 45.0625 112.113281 44.8125 112.191406 C 44.429688 110.78125 43.347656 107.578125 40.953125 105.300781 C 41.941406 104.84375 43.511719 104.273438 45.085938 104.320312 Z M 38.53125 103.648438 C 38.613281 103.960938 38.746094 104.25 38.933594 104.515625 C 38.835938 104.597656 38.761719 104.695312 38.707031 104.8125 C 38.65625 104.925781 38.632812 105.046875 38.636719 105.171875 C 38.640625 105.300781 38.671875 105.417969 38.730469 105.53125 C 38.792969 105.640625 38.875 105.734375 38.976562 105.808594 C 40.074219 106.640625 40.957031 107.65625 41.628906 108.855469 C 41.605469 108.878906 41.582031 108.894531 41.558594 108.914062 L 38.777344 111.660156 L 34.984375 108.8125 C 35.710938 108.792969 36.339844 108.53125 36.863281 108.03125 C 37.371094 107.480469 37.605469 106.832031 37.558594 106.085938 C 37.539062 105.664062 37.429688 105.269531 37.226562 104.898438 C 37.613281 104.183594 37.6875 103.433594 37.449219 102.65625 C 37.441406 102.640625 37.433594 102.625 37.429688 102.609375 C 37.78125 102.609375 38.128906 102.609375 38.472656 102.589844 C 38.433594 102.945312 38.457031 103.292969 38.546875 103.636719 Z M 7.433594 129.707031 L 7.433594 131.1875 L 6.820312 131.1875 C 6.421875 130.757812 6.210938 130.25 6.1875 129.664062 C 6.574219 129.679688 6.992188 129.695312 7.433594 129.707031 Z M 11.613281 129.617188 C 11.707031 130.148438 11.570312 130.617188 11.207031 131.015625 C 11.160156 131.066406 11.121094 131.121094 11.089844 131.183594 L 10.363281 131.183594 L 10.363281 129.6875 C 10.769531 129.664062 11.1875 129.664062 11.613281 129.617188 Z M 11.304688 147.378906 L 6.1875 147.378906 L 6.1875 132.828125 L 11.3125 132.828125 Z M 12.835938 131.570312 C 13.226562 130.917969 13.375 130.21875 13.277344 129.46875 L 13.804688 129.40625 C 13.6875 132.199219 13.4375 135.367188 12.980469 138.894531 L 12.980469 132.003906 C 12.976562 131.84375 12.929688 131.699219 12.835938 131.570312 Z M 29.65625 148.445312 L 20.101562 148.445312 L 20.101562 146.578125 C 21.511719 146.628906 23.050781 146.660156 24.652344 146.660156 C 26.253906 146.660156 27.96875 146.625 29.65625 146.546875 Z M 56.789062 148.445312 L 47.238281 148.445312 L 47.238281 146.050781 C 50.476562 146.246094 53.691406 146.300781 56.425781 146.300781 L 56.785156 146.300781 Z M 63.078125 144.539062 C 60.144531 144.648438 50.933594 144.886719 42.890625 144.058594 L 39.070312 136.609375 L 39.046875 136.574219 L 39.046875 129.6875 C 39.046875 129.460938 38.964844 129.265625 38.804688 129.105469 C 38.644531 128.945312 38.449219 128.863281 38.21875 128.863281 C 37.992188 128.863281 37.796875 128.945312 37.636719 129.105469 C 37.472656 129.265625 37.394531 129.460938 37.394531 129.6875 L 37.394531 136.734375 L 33.960938 144.5625 C 26.125 145.4375 16.6875 144.8125 13.785156 144.578125 C 17.121094 125.285156 14.703125 114.773438 14.597656 114.328125 C 14.542969 114.109375 14.417969 113.9375 14.222656 113.820312 C 14.027344 113.703125 13.816406 113.671875 13.59375 113.722656 C 13.371094 113.777344 13.203125 113.902344 13.082031 114.097656 C 12.964844 114.292969 12.933594 114.5 12.988281 114.722656 C 13.003906 114.792969 14.042969 119.320312 13.839844 127.75 C 10.234375 128.21875 6.632812 128.195312 3.035156 127.679688 C 2.234375 110.398438 4.316406 102.734375 5.660156 99.667969 C 5.949219 100.378906 6.40625 100.964844 7.023438 101.425781 C 7.554688 101.792969 8.136719 102.035156 8.769531 102.152344 C 9.40625 102.265625 10.035156 102.25 10.660156 102.09375 C 10.921875 102.621094 11.265625 103.089844 11.699219 103.488281 C 12.128906 103.890625 12.621094 104.199219 13.171875 104.417969 C 13.71875 104.636719 14.289062 104.75 14.878906 104.757812 C 15.472656 104.765625 16.042969 104.664062 16.597656 104.460938 C 16.773438 105.09375 17.089844 105.652344 17.535156 106.136719 C 17.984375 106.621094 18.519531 106.976562 19.140625 107.203125 C 19.769531 107.398438 20.40625 107.445312 21.058594 107.34375 C 21.707031 107.242188 22.300781 107.003906 22.839844 106.628906 C 23.371094 107.417969 24.105469 107.886719 25.046875 108.035156 C 25.960938 108.132812 26.777344 107.894531 27.496094 107.320312 C 28.210938 108.132812 29.085938 108.679688 30.128906 108.964844 C 30.433594 109.03125 30.738281 109.0625 31.050781 109.0625 C 31.488281 109.058594 31.917969 108.992188 32.339844 108.867188 L 38.066406 113.160156 L 38.066406 118 C 38.082031 118.21875 38.167969 118.402344 38.328125 118.550781 C 38.488281 118.703125 38.675781 118.777344 38.894531 118.777344 C 39.113281 118.777344 39.304688 118.703125 39.464844 118.550781 C 39.625 118.402344 39.710938 118.21875 39.722656 118 L 39.722656 113.089844 L 42.453125 110.386719 C 42.839844 111.261719 43.148438 112.164062 43.371094 113.089844 C 42.863281 113.59375 42.546875 114.195312 42.421875 114.898438 C 42.210938 116.207031 42.285156 117.5 42.636719 118.777344 C 42.4375 118.90625 42.316406 119.085938 42.277344 119.316406 C 42.277344 119.339844 41.785156 121.199219 37.65625 122.101562 C 37.472656 122.140625 37.316406 122.234375 37.195312 122.378906 C 37.074219 122.527344 37.011719 122.695312 37.003906 122.882812 C 37 123.070312 37.054688 123.242188 37.167969 123.394531 C 37.28125 123.546875 37.425781 123.648438 37.609375 123.699219 L 44.042969 125.472656 C 44.113281 125.492188 44.1875 125.5 44.261719 125.5 C 44.507812 125.503906 44.710938 125.414062 44.875 125.234375 L 44.941406 125.234375 L 48.476562 125.394531 L 48.515625 125.394531 C 48.632812 125.394531 48.746094 125.371094 48.851562 125.324219 C 48.960938 125.273438 49.050781 125.207031 49.128906 125.121094 C 49.210938 125.03125 49.265625 124.933594 49.300781 124.820312 C 49.335938 124.710938 49.347656 124.597656 49.335938 124.480469 L 49.09375 122.652344 C 49.242188 122.652344 49.398438 122.621094 49.535156 122.597656 C 49.539062 124.582031 49.78125 126.535156 50.257812 128.460938 L 46.492188 128.460938 C 46.265625 128.460938 46.070312 128.539062 45.910156 128.699219 C 45.746094 128.859375 45.667969 129.054688 45.667969 129.28125 L 45.667969 132.367188 C 45.667969 132.59375 45.746094 132.789062 45.910156 132.949219 C 46.070312 133.109375 46.265625 133.191406 46.492188 133.191406 L 58.253906 133.191406 C 58.480469 133.191406 58.675781 133.109375 58.835938 132.949219 C 59 132.789062 59.078125 132.59375 59.078125 132.367188 L 59.078125 130.589844 C 59.917969 130.339844 60.734375 130.035156 61.53125 129.675781 C 61.683594 134.667969 62.199219 139.621094 63.078125 144.539062 Z M 69.53125 119.863281 C 66.160156 125.9375 61.425781 128.28125 58.039062 129.179688 C 56.898438 129.480469 55.742188 129.664062 54.566406 129.738281 L 54.410156 129.738281 C 55.140625 127.054688 55.507812 124.320312 55.515625 121.539062 C 55.515625 120.773438 55.46875 115.5 54.164062 113.003906 C 56 112.429688 58.890625 110.980469 59.945312 107.410156 C 60.027344 107.1875 60.011719 106.96875 59.90625 106.757812 C 59.796875 106.546875 59.628906 106.40625 59.398438 106.339844 C 59.171875 106.273438 58.953125 106.296875 58.746094 106.417969 C 58.539062 106.539062 58.410156 106.714844 58.355469 106.945312 C 57.132812 111.128906 52.617188 111.695312 52.425781 111.714844 C 52.316406 111.726562 52.214844 111.757812 52.121094 111.8125 C 51.417969 111.472656 50.679688 111.339844 49.902344 111.414062 C 50.257812 109.265625 52.109375 107.449219 52.820312 106.808594 C 53.378906 107.058594 53.957031 107.183594 54.566406 107.183594 C 54.992188 107.1875 55.410156 107.121094 55.8125 106.992188 C 56.4375 106.765625 56.96875 106.410156 57.417969 105.925781 C 57.867188 105.441406 58.179688 104.882812 58.355469 104.246094 C 58.90625 104.453125 59.480469 104.550781 60.070312 104.542969 C 60.664062 104.539062 61.234375 104.425781 61.78125 104.207031 C 62.332031 103.988281 62.824219 103.675781 63.257812 103.277344 C 63.6875 102.875 64.035156 102.410156 64.292969 101.878906 C 64.917969 102.035156 65.546875 102.054688 66.183594 101.9375 C 66.816406 101.820312 67.398438 101.582031 67.929688 101.214844 C 68.625 100.691406 69.117188 100.019531 69.398438 99.195312 C 70.863281 101.976562 74.605469 110.675781 69.53125 119.863281 Z M 69.5625 89.3125 C 69.59375 89.683594 69.507812 90.023438 69.292969 90.328125 C 69.082031 90.636719 68.792969 90.839844 68.433594 90.941406 C 68.265625 90.980469 68.121094 91.058594 68.003906 91.183594 C 67.886719 91.308594 67.8125 91.457031 67.789062 91.625 C 67.761719 91.796875 67.789062 91.957031 67.863281 92.113281 C 67.941406 92.265625 68.054688 92.382812 68.203125 92.46875 C 69.011719 92.9375 69.847656 93.976562 69.855469 94.90625 C 69.875 95.277344 69.78125 95.617188 69.574219 95.929688 C 69.417969 96.152344 69.203125 96.265625 68.929688 96.261719 C 68.804688 96.246094 68.679688 96.261719 68.558594 96.304688 C 68.4375 96.347656 68.332031 96.414062 68.242188 96.503906 C 68.152344 96.59375 68.085938 96.703125 68.046875 96.824219 C 68.007812 96.945312 67.996094 97.066406 68.011719 97.195312 C 68.152344 98.210938 67.703125 99.375 66.96875 99.898438 C 66.554688 100.183594 66.097656 100.347656 65.597656 100.386719 C 65.097656 100.425781 64.621094 100.335938 64.171875 100.117188 C 63.929688 100 63.691406 100 63.453125 100.117188 C 63.214844 100.226562 63.0625 100.410156 62.996094 100.667969 C 62.867188 101.148438 62.628906 101.574219 62.289062 101.941406 C 61.953125 102.308594 61.546875 102.578125 61.074219 102.75 C 60.59375 102.917969 60.101562 102.96875 59.597656 102.898438 C 59.09375 102.832031 58.632812 102.652344 58.214844 102.363281 C 57.949219 102.175781 57.667969 102.152344 57.371094 102.292969 C 57.074219 102.4375 56.921875 102.675781 56.90625 103.003906 C 56.871094 103.960938 56.296875 105.136719 55.304688 105.464844 C 54.800781 105.613281 54.300781 105.613281 53.796875 105.457031 C 53.296875 105.304688 52.878906 105.023438 52.550781 104.617188 C 52.460938 104.503906 52.347656 104.417969 52.214844 104.363281 C 52.082031 104.308594 51.941406 104.289062 51.796875 104.304688 C 51.652344 104.324219 51.523438 104.375 51.40625 104.464844 C 51.292969 104.550781 51.203125 104.660156 51.144531 104.792969 L 46.722656 103.785156 L 46.703125 103.519531 C 46.691406 103.328125 46.621094 103.160156 46.488281 103.015625 C 46.359375 102.875 46.195312 102.789062 46.003906 102.757812 C 43.894531 102.4375 41.773438 103.140625 40.4375 103.734375 C 40.304688 103.597656 40.210938 103.433594 40.164062 103.25 C 40.101562 103.007812 40.121094 102.769531 40.222656 102.542969 C 54.671875 101.65625 63.113281 94.285156 67.722656 88.035156 C 67.824219 88.070312 67.925781 88.082031 68.03125 88.078125 C 68.398438 88.074219 68.730469 88.191406 69.015625 88.421875 C 69.304688 88.65625 69.484375 88.949219 69.5625 89.3125 Z M 66.34375 87.089844 C 59.53125 96.292969 49.753906 100.960938 37.28125 100.960938 C 24.8125 100.960938 15.050781 96.292969 8.261719 87.089844 C 5.3125 83.046875 3.191406 78.609375 1.90625 73.78125 C 6.234375 71.933594 11.632812 65.328125 16.492188 55.816406 C 18.222656 52.4375 21.929688 49.839844 27.519531 48.089844 C 30.921875 47.019531 34.402344 46.511719 37.96875 46.566406 C 41.535156 46.621094 45 47.238281 48.363281 48.417969 C 53.246094 50.15625 56.539062 52.648438 58.167969 55.816406 C 63.019531 65.328125 68.414062 71.933594 72.742188 73.78125 C 71.441406 78.613281 69.308594 83.046875 66.34375 87.089844 Z M 66.34375 87.089844 " fill-opacity="1" fill-rule="nonzero"/></g><path fill="#302621" d="M 30.527344 128.464844 L 18.769531 128.464844 C 18.539062 128.464844 18.34375 128.542969 18.183594 128.707031 C 18.019531 128.867188 17.941406 129.0625 17.941406 129.289062 L 17.941406 132.375 C 17.941406 132.601562 18.019531 132.796875 18.183594 132.957031 C 18.34375 133.117188 18.539062 133.199219 18.769531 133.199219 L 30.527344 133.199219 C 30.753906 133.199219 30.949219 133.117188 31.109375 132.957031 C 31.273438 132.796875 31.351562 132.601562 31.351562 132.375 L 31.351562 129.289062 C 31.351562 129.0625 31.273438 128.867188 31.109375 128.707031 C 30.949219 128.546875 30.753906 128.464844 30.527344 128.464844 Z M 29.699219 131.546875 L 19.589844 131.546875 L 19.589844 130.113281 L 29.699219 130.113281 Z M 29.699219 131.546875 " fill-opacity="1" fill-rule="nonzero"/></g></g></g><g fill="#544137" fill-opacity="1"><g transform="translate(120.575127, 259.721745)"><g><path d="M 10.710938 -24.683594 C 9.316406 -24.683594 5.710938 -24.582031 4.554688 -23.898438 C 2.242188 -22.539062 2.242188 -15.535156 2.242188 -13.121094 C 2.242188 -10.371094 1.902344 -1.871094 5.066406 -0.714844 C 6.730469 -0.101562 8.941406 -0.101562 10.710938 -0.101562 C 17.578125 -0.101562 23.1875 -5.507812 23.1875 -12.441406 C 23.1875 -19.515625 17.710938 -24.683594 10.710938 -24.683594 Z M 16.558594 -12.953125 C 16.558594 -8.398438 15.367188 -5.203125 10.199219 -5.203125 C 8.875 -5.203125 8.976562 -10.164062 8.976562 -11.117188 C 8.976562 -13.226562 9.078125 -15.367188 9.078125 -17.476562 C 9.078125 -17.816406 9.113281 -18.121094 9.214844 -18.460938 C 9.417969 -19.140625 9.6875 -19.582031 10.472656 -19.582031 C 14.789062 -19.582031 16.558594 -17.066406 16.558594 -12.953125 Z M 16.558594 -12.953125 "/></g></g></g><g fill="#544137" fill-opacity="1"><g transform="translate(142.706396, 259.721745)"><g><path d="M 10.402344 -16.046875 C 10.402344 -17.710938 10.234375 -23.015625 8.703125 -23.933594 C 7.921875 -24.410156 7.277344 -24.375 6.390625 -24.375 C 5.746094 -24.375 5.167969 -24.273438 4.625 -23.96875 C 2.753906 -22.914062 2.6875 -16.558594 2.6875 -14.585938 C 2.6875 -13.121094 2.753906 -11.695312 2.753906 -10.234375 C 2.753906 -8.464844 2.820312 -1.769531 4.417969 -0.851562 C 5.132812 -0.441406 6.015625 -0.40625 6.832031 -0.40625 C 8.058594 -0.40625 9.042969 -0.953125 9.585938 -2.074219 C 10.300781 -3.535156 10.402344 -8.398438 10.402344 -10.132812 Z M 10.402344 -16.046875 "/></g></g></g><g fill="#544137" fill-opacity="1"><g transform="translate(154.12889, 259.721745)"><g><path d="M 11.96875 -9.113281 C 9.621094 -10.199219 10.132812 -24.136719 5.746094 -24.136719 C 3.976562 -24.136719 1.902344 -24.105469 1.902344 -21.757812 C 1.902344 -18.734375 6.359375 -5.882812 7.921875 -2.921875 C 8.296875 -2.210938 8.804688 -1.53125 9.484375 -1.019531 C 10.164062 -0.511719 11.015625 -0.339844 11.832031 -0.339844 C 12.679688 -0.339844 13.632812 -0.40625 14.347656 -0.882812 C 17 -2.617188 22.03125 -18.121094 22.03125 -21.488281 C 22.03125 -24.171875 20.671875 -24.105469 18.460938 -24.105469 C 17.949219 -24.105469 17.304688 -24.035156 16.898438 -23.664062 C 16.523438 -23.289062 16.21875 -22.675781 16.046875 -22.199219 C 15.402344 -20.398438 13.054688 -9.585938 11.96875 -9.113281 Z M 11.96875 -9.113281 "/></g></g></g><g fill="#544137" fill-opacity="1"><g transform="translate(176.430137, 259.721745)"><g><path d="M 10.402344 -16.046875 C 10.402344 -17.710938 10.234375 -23.015625 8.703125 -23.933594 C 7.921875 -24.410156 7.277344 -24.375 6.390625 -24.375 C 5.746094 -24.375 5.167969 -24.273438 4.625 -23.96875 C 2.753906 -22.914062 2.6875 -16.558594 2.6875 -14.585938 C 2.6875 -13.121094 2.753906 -11.695312 2.753906 -10.234375 C 2.753906 -8.464844 2.820312 -1.769531 4.417969 -0.851562 C 5.132812 -0.441406 6.015625 -0.40625 6.832031 -0.40625 C 8.058594 -0.40625 9.042969 -0.953125 9.585938 -2.074219 C 10.300781 -3.535156 10.402344 -8.398438 10.402344 -10.132812 Z M 10.402344 -16.046875 "/></g></g></g><g fill="#544137" fill-opacity="1"><g transform="translate(187.852633, 259.721745)"><g><path d="M 11.015625 -19.617188 C 12.273438 -19.617188 13.53125 -19.34375 14.753906 -19.074219 C 15.707031 -18.835938 16.761719 -18.527344 17.746094 -18.527344 C 18.324219 -18.527344 18.628906 -18.800781 18.628906 -19.378906 C 18.628906 -24.648438 14.890625 -24.714844 10.742188 -24.714844 C 6.289062 -24.714844 1.53125 -22.269531 1.53125 -17.269531 C 1.53125 -13.464844 5.371094 -10.8125 8.703125 -9.859375 C 9.6875 -9.585938 10.742188 -9.417969 11.59375 -8.804688 C 12.171875 -8.398438 12.375 -7.886719 12.375 -7.171875 C 12.375 -5.644531 10.8125 -5.203125 9.554688 -5.203125 C 8.261719 -5.203125 7.003906 -5.574219 5.78125 -5.949219 C 4.792969 -6.253906 3.738281 -6.699219 2.6875 -6.699219 C 2.3125 -6.699219 2.277344 -6.390625 2.277344 -6.085938 C 2.277344 -0.644531 6.015625 -0.0351562 10.539062 -0.0351562 C 15.128906 -0.0351562 19.445312 -3.128906 19.445312 -7.988281 C 19.445312 -15.503906 8.535156 -14.277344 8.535156 -17.746094 C 8.535156 -19.175781 9.792969 -19.617188 11.015625 -19.617188 Z M 11.015625 -19.617188 "/></g></g></g><g fill="#544137" fill-opacity="1"><g transform="translate(207.094235, 259.721745)"><g><path d="M 12.511719 -24.714844 C 5.746094 -24.714844 0.714844 -19.039062 0.714844 -12.410156 C 0.714844 -5.335938 6.121094 -0.0664062 13.15625 -0.0664062 C 19.855469 -0.0664062 25.089844 -5.847656 25.089844 -12.410156 C 25.089844 -19.582031 19.582031 -24.714844 12.511719 -24.714844 Z M 13.191406 -5.507812 C 9.484375 -5.507812 7.785156 -8.261719 7.785156 -11.695312 C 7.785156 -15.164062 8.601562 -19.277344 12.886719 -19.277344 C 17.269531 -19.277344 17.984375 -15.195312 17.984375 -11.695312 C 17.984375 -8.839844 16.453125 -5.507812 13.191406 -5.507812 Z M 13.191406 -5.507812 "/></g></g></g><g fill="#544137" fill-opacity="1"><g transform="translate(231.095292, 259.721745)"><g><path d="M 9.113281 -3.398438 C 9.113281 -4.25 9.007812 -5.101562 9.007812 -5.914062 C 9.007812 -6.527344 9.007812 -8.804688 9.859375 -8.804688 C 15.535156 -8.804688 12.578125 -0.542969 16.964844 -0.542969 C 17.816406 -0.542969 21.316406 -0.714844 21.316406 -1.902344 C 21.316406 -3.398438 19.617188 -8.464844 18.628906 -9.554688 C 18.425781 -9.757812 17.476562 -10.640625 17.476562 -10.878906 C 17.476562 -11.050781 17.984375 -11.390625 18.121094 -11.457031 C 19.277344 -12.207031 20.296875 -13.191406 21.011719 -14.382812 C 21.488281 -15.164062 21.65625 -16.011719 21.65625 -16.898438 C 21.65625 -21.996094 16.691406 -24.75 12.101562 -24.75 C 10.132812 -24.75 5.542969 -24.714844 4.046875 -23.425781 C 3.296875 -22.777344 2.921875 -21.144531 2.753906 -20.195312 C 2.378906 -17.882812 2.277344 -15.503906 2.277344 -13.15625 C 2.277344 -10.914062 2.074219 -1.9375 4.488281 -0.953125 C 5.304688 -0.613281 6.222656 -0.578125 7.105469 -0.578125 C 9.007812 -0.578125 9.113281 -1.835938 9.113281 -3.398438 Z M 9.042969 -18.085938 C 9.042969 -19.003906 9.316406 -19.785156 10.371094 -19.785156 L 11.355469 -19.785156 C 12.988281 -19.785156 14.789062 -18.664062 14.789062 -16.863281 C 14.789062 -13.804688 12.441406 -13.53125 9.960938 -13.53125 C 9.113281 -13.53125 9.042969 -14.515625 9.042969 -15.164062 Z M 9.042969 -18.085938 "/></g></g></g><g fill="#544137" fill-opacity="1"><g transform="translate(98.274347, 300.221743)"><g><path d="M 10.710938 -24.683594 C 9.316406 -24.683594 5.710938 -24.582031 4.554688 -23.898438 C 2.242188 -22.539062 2.242188 -15.535156 2.242188 -13.121094 C 2.242188 -10.371094 1.902344 -1.871094 5.066406 -0.714844 C 6.730469 -0.101562 8.941406 -0.101562 10.710938 -0.101562 C 17.578125 -0.101562 23.1875 -5.507812 23.1875 -12.441406 C 23.1875 -19.515625 17.710938 -24.683594 10.710938 -24.683594 Z M 16.558594 -12.953125 C 16.558594 -8.398438 15.367188 -5.203125 10.199219 -5.203125 C 8.875 -5.203125 8.976562 -10.164062 8.976562 -11.117188 C 8.976562 -13.226562 9.078125 -15.367188 9.078125 -17.476562 C 9.078125 -17.816406 9.113281 -18.121094 9.214844 -18.460938 C 9.417969 -19.140625 9.6875 -19.582031 10.472656 -19.582031 C 14.789062 -19.582031 16.558594 -17.066406 16.558594 -12.953125 Z M 16.558594 -12.953125 "/></g></g></g><g fill="#544137" fill-opacity="1"><g transform="translate(120.405616, 300.221743)"><g><path d="M 9.246094 -7.511719 C 9.246094 -7.988281 9.246094 -8.5 9.347656 -8.976562 C 9.417969 -9.28125 9.519531 -9.585938 9.757812 -9.792969 C 10.402344 -10.335938 12.070312 -10.234375 12.917969 -10.234375 C 14.007812 -10.234375 17.40625 -10.027344 18.050781 -10.980469 C 18.289062 -11.355469 18.359375 -11.898438 18.359375 -12.339844 C 18.359375 -12.886719 18.359375 -13.871094 18.019531 -14.3125 C 17.476562 -15.027344 16.453125 -15.164062 15.605469 -15.164062 C 14.585938 -15.164062 13.566406 -15.0625 12.546875 -15.0625 C 11.320312 -15.0625 9.28125 -15.164062 9.28125 -16.828125 C 9.28125 -19.105469 10.199219 -19.074219 12.136719 -19.074219 C 13.257812 -19.074219 14.382812 -18.902344 15.503906 -18.902344 C 16.523438 -18.902344 18.734375 -18.867188 18.734375 -20.332031 C 18.734375 -21.214844 18.597656 -22.234375 17.949219 -22.914062 C 16.863281 -24.070312 14.992188 -24.410156 13.464844 -24.410156 C 6.152344 -24.410156 2.277344 -24.34375 2.277344 -15.773438 C 2.277344 -14.414062 2.3125 -13.089844 2.3125 -11.730469 C 2.3125 -10.0625 2.347656 -8.398438 2.449219 -6.730469 C 2.617188 -4.183594 3.296875 -2.140625 5.8125 -1.121094 C 8.058594 -0.203125 10.878906 -0.40625 13.292969 -0.40625 C 15.503906 -0.40625 18.699219 -0.917969 18.699219 -3.738281 C 18.699219 -5.335938 18.425781 -5.8125 16.761719 -5.8125 C 14.890625 -5.8125 12.988281 -5.710938 11.117188 -5.710938 C 9.894531 -5.710938 9.246094 -6.289062 9.246094 -7.511719 Z M 9.246094 -7.511719 "/></g></g></g><g fill="#544137" fill-opacity="1"><g transform="translate(139.647217, 300.221743)"><g><path d="M 21.28125 -20.195312 C 21.28125 -20.570312 21.179688 -21.996094 21.078125 -22.300781 C 20.160156 -24.816406 12.410156 -24.410156 10.335938 -24.410156 C 8.566406 -24.410156 3.671875 -24.308594 2.414062 -23.085938 C 1.902344 -22.574219 1.769531 -20.976562 1.769531 -20.261719 C 1.769531 -17.03125 7.070312 -20.5 7.75 -16.863281 C 7.886719 -16.046875 7.921875 -15.195312 7.921875 -14.382812 C 7.921875 -12.648438 7.851562 -10.945312 7.851562 -9.214844 C 7.851562 -7.378906 7.820312 -1.734375 9.519531 -0.714844 C 10.097656 -0.375 10.945312 -0.40625 11.628906 -0.40625 C 12.410156 -0.40625 13.359375 -0.375 13.972656 -0.953125 C 15.0625 -2.003906 15.164062 -9.078125 15.164062 -10.777344 C 15.164062 -12.171875 15.09375 -13.53125 15.09375 -14.925781 C 15.09375 -16.964844 15.503906 -18.835938 17.949219 -18.835938 C 18.460938 -18.835938 18.9375 -18.765625 19.445312 -18.765625 C 20.433594 -18.765625 21.28125 -19.039062 21.28125 -20.195312 Z M 21.28125 -20.195312 "/></g></g></g><g fill="#544137" fill-opacity="1"><g transform="translate(160.928589, 300.221743)"><g><path d="M 9.246094 -7.511719 C 9.246094 -7.988281 9.246094 -8.5 9.347656 -8.976562 C 9.417969 -9.28125 9.519531 -9.585938 9.757812 -9.792969 C 10.402344 -10.335938 12.070312 -10.234375 12.917969 -10.234375 C 14.007812 -10.234375 17.40625 -10.027344 18.050781 -10.980469 C 18.289062 -11.355469 18.359375 -11.898438 18.359375 -12.339844 C 18.359375 -12.886719 18.359375 -13.871094 18.019531 -14.3125 C 17.476562 -15.027344 16.453125 -15.164062 15.605469 -15.164062 C 14.585938 -15.164062 13.566406 -15.0625 12.546875 -15.0625 C 11.320312 -15.0625 9.28125 -15.164062 9.28125 -16.828125 C 9.28125 -19.105469 10.199219 -19.074219 12.136719 -19.074219 C 13.257812 -19.074219 14.382812 -18.902344 15.503906 -18.902344 C 16.523438 -18.902344 18.734375 -18.867188 18.734375 -20.332031 C 18.734375 -21.214844 18.597656 -22.234375 17.949219 -22.914062 C 16.863281 -24.070312 14.992188 -24.410156 13.464844 -24.410156 C 6.152344 -24.410156 2.277344 -24.34375 2.277344 -15.773438 C 2.277344 -14.414062 2.3125 -13.089844 2.3125 -11.730469 C 2.3125 -10.0625 2.347656 -8.398438 2.449219 -6.730469 C 2.617188 -4.183594 3.296875 -2.140625 5.8125 -1.121094 C 8.058594 -0.203125 10.878906 -0.40625 13.292969 -0.40625 C 15.503906 -0.40625 18.699219 -0.917969 18.699219 -3.738281 C 18.699219 -5.335938 18.425781 -5.8125 16.761719 -5.8125 C 14.890625 -5.8125 12.988281 -5.710938 11.117188 -5.710938 C 9.894531 -5.710938 9.246094 -6.289062 9.246094 -7.511719 Z M 9.246094 -7.511719 "/></g></g></g><g fill="#544137" fill-opacity="1"><g transform="translate(180.170192, 300.221743)"><g><path d="M 13.804688 -5.304688 C 9.65625 -5.304688 7.851562 -8.875 7.851562 -12.578125 C 7.851562 -16.082031 9.621094 -19.414062 13.496094 -19.414062 C 15.332031 -19.414062 17.03125 -18.628906 18.867188 -18.628906 C 19.546875 -18.628906 19.652344 -19.039062 19.652344 -19.617188 C 19.652344 -20.671875 19.683594 -22.335938 18.9375 -23.152344 C 18.085938 -24.105469 15.128906 -24.582031 13.871094 -24.648438 C 13.292969 -24.683594 12.714844 -24.683594 12.136719 -24.683594 C 5.335938 -24.683594 0.746094 -18.9375 0.746094 -12.410156 C 0.746094 -5.644531 5.472656 -0.101562 12.441406 -0.101562 C 14.007812 -0.101562 18.085938 -0.441406 19.207031 -1.5625 C 19.886719 -2.242188 19.957031 -4.113281 19.957031 -5.03125 C 19.957031 -5.882812 19.515625 -6.085938 18.734375 -6.085938 C 17.03125 -6.085938 15.46875 -5.304688 13.804688 -5.304688 Z M 13.804688 -5.304688 "/></g></g></g><g fill="#544137" fill-opacity="1"><g transform="translate(200.771633, 300.221743)"><g><path d="M 21.28125 -20.195312 C 21.28125 -20.570312 21.179688 -21.996094 21.078125 -22.300781 C 20.160156 -24.816406 12.410156 -24.410156 10.335938 -24.410156 C 8.566406 -24.410156 3.671875 -24.308594 2.414062 -23.085938 C 1.902344 -22.574219 1.769531 -20.976562 1.769531 -20.261719 C 1.769531 -17.03125 7.070312 -20.5 7.75 -16.863281 C 7.886719 -16.046875 7.921875 -15.195312 7.921875 -14.382812 C 7.921875 -12.648438 7.851562 -10.945312 7.851562 -9.214844 C 7.851562 -7.378906 7.820312 -1.734375 9.519531 -0.714844 C 10.097656 -0.375 10.945312 -0.40625 11.628906 -0.40625 C 12.410156 -0.40625 13.359375 -0.375 13.972656 -0.953125 C 15.0625 -2.003906 15.164062 -9.078125 15.164062 -10.777344 C 15.164062 -12.171875 15.09375 -13.53125 15.09375 -14.925781 C 15.09375 -16.964844 15.503906 -18.835938 17.949219 -18.835938 C 18.460938 -18.835938 18.9375 -18.765625 19.445312 -18.765625 C 20.433594 -18.765625 21.28125 -19.039062 21.28125 -20.195312 Z M 21.28125 -20.195312 "/></g></g></g><g fill="#544137" fill-opacity="1"><g transform="translate(222.053007, 300.221743)"><g><path d="M 10.402344 -16.046875 C 10.402344 -17.710938 10.234375 -23.015625 8.703125 -23.933594 C 7.921875 -24.410156 7.277344 -24.375 6.390625 -24.375 C 5.746094 -24.375 5.167969 -24.273438 4.625 -23.96875 C 2.753906 -22.914062 2.6875 -16.558594 2.6875 -14.585938 C 2.6875 -13.121094 2.753906 -11.695312 2.753906 -10.234375 C 2.753906 -8.464844 2.820312 -1.769531 4.417969 -0.851562 C 5.132812 -0.441406 6.015625 -0.40625 6.832031 -0.40625 C 8.058594 -0.40625 9.042969 -0.953125 9.585938 -2.074219 C 10.300781 -3.535156 10.402344 -8.398438 10.402344 -10.132812 Z M 10.402344 -16.046875 "/></g></g></g><g fill="#544137" fill-opacity="1"><g transform="translate(233.475503, 300.221743)"><g><path d="M 11.96875 -9.113281 C 9.621094 -10.199219 10.132812 -24.136719 5.746094 -24.136719 C 3.976562 -24.136719 1.902344 -24.105469 1.902344 -21.757812 C 1.902344 -18.734375 6.359375 -5.882812 7.921875 -2.921875 C 8.296875 -2.210938 8.804688 -1.53125 9.484375 -1.019531 C 10.164062 -0.511719 11.015625 -0.339844 11.832031 -0.339844 C 12.679688 -0.339844 13.632812 -0.40625 14.347656 -0.882812 C 17 -2.617188 22.03125 -18.121094 22.03125 -21.488281 C 22.03125 -24.171875 20.671875 -24.105469 18.460938 -24.105469 C 17.949219 -24.105469 17.304688 -24.035156 16.898438 -23.664062 C 16.523438 -23.289062 16.21875 -22.675781 16.046875 -22.199219 C 15.402344 -20.398438 13.054688 -9.585938 11.96875 -9.113281 Z M 11.96875 -9.113281 "/></g></g></g><g fill="#544137" fill-opacity="1"><g transform="translate(255.776753, 300.221743)"><g><path d="M 9.246094 -7.511719 C 9.246094 -7.988281 9.246094 -8.5 9.347656 -8.976562 C 9.417969 -9.28125 9.519531 -9.585938 9.757812 -9.792969 C 10.402344 -10.335938 12.070312 -10.234375 12.917969 -10.234375 C 14.007812 -10.234375 17.40625 -10.027344 18.050781 -10.980469 C 18.289062 -11.355469 18.359375 -11.898438 18.359375 -12.339844 C 18.359375 -12.886719 18.359375 -13.871094 18.019531 -14.3125 C 17.476562 -15.027344 16.453125 -15.164062 15.605469 -15.164062 C 14.585938 -15.164062 13.566406 -15.0625 12.546875 -15.0625 C 11.320312 -15.0625 9.28125 -15.164062 9.28125 -16.828125 C 9.28125 -19.105469 10.199219 -19.074219 12.136719 -19.074219 C 13.257812 -19.074219 14.382812 -18.902344 15.503906 -18.902344 C 16.523438 -18.902344 18.734375 -18.867188 18.734375 -20.332031 C 18.734375 -21.214844 18.597656 -22.234375 17.949219 -22.914062 C 16.863281 -24.070312 14.992188 -24.410156 13.464844 -24.410156 C 6.152344 -24.410156 2.277344 -24.34375 2.277344 -15.773438 C 2.277344 -14.414062 2.3125 -13.089844 2.3125 -11.730469 C 2.3125 -10.0625 2.347656 -8.398438 2.449219 -6.730469 C 2.617188 -4.183594 3.296875 -2.140625 5.8125 -1.121094 C 8.058594 -0.203125 10.878906 -0.40625 13.292969 -0.40625 C 15.503906 -0.40625 18.699219 -0.917969 18.699219 -3.738281 C 18.699219 -5.335938 18.425781 -5.8125 16.761719 -5.8125 C 14.890625 -5.8125 12.988281 -5.710938 11.117188 -5.710938 C 9.894531 -5.710938 9.246094 -6.289062 9.246094 -7.511719 Z M 9.246094 -7.511719 "/></g></g></g></svg>